{"glyphs":{"0":{"ha":850,"x_min":71,"x_max":779,"o":"m 71 463 q 83 600 71 533 q 122 728 95 666 q 190 837 150 791 q 291 912 231 884 q 425 940 351 940 q 559 912 498 940 q 660 837 619 884 q 727 728 700 791 q 767 599 755 666 q 779 463 779 532 q 767 326 779 393 q 727 196 755 259 q 660 87 700 134 q 559 12 619 40 q 425 -17 498 -17 q 291 12 351 -17 q 190 87 231 40 q 122 197 150 134 q 83 326 95 260 q 71 463 71 393 m 189 463 q 202 325 189 389 q 241 206 214 261 q 315 118 267 151 q 425 86 362 86 q 536 118 488 86 q 610 206 583 151 q 649 325 636 261 q 661 463 661 389 q 654 572 661 520 q 629 674 646 625 q 585 759 611 723 q 517 816 558 795 q 425 838 476 838 q 333 816 374 838 q 266 759 292 795 q 222 674 239 723 q 197 572 204 625 q 189 463 189 520 z "},"1":{"ha":471,"x_min":29,"x_max":363,"o":"m 29 688 l 261 926 l 363 926 l 363 0 l 248 0 l 248 775 l 98 616 l 29 688 z "},"2":{"ha":817,"x_min":74,"x_max":711,"o":"m 74 794 q 211 902 126 864 q 396 940 296 940 q 510 923 455 940 q 609 873 564 906 q 680 788 653 841 q 707 668 707 734 q 684 555 707 612 q 624 447 661 498 q 526 335 587 396 q 404 223 464 273 q 257 103 345 172 l 711 103 l 711 0 l 75 0 l 75 93 q 231 216 170 167 q 356 322 291 265 q 459 419 421 378 q 530 505 497 460 q 576 589 562 549 q 590 668 590 629 q 533 794 590 751 q 396 838 475 838 q 251 806 315 838 q 144 721 187 775 l 74 794 z "},"3":{"ha":773,"x_min":40,"x_max":699,"o":"m 40 136 l 109 208 q 219 119 151 153 q 367 86 287 86 q 525 133 467 86 q 583 260 583 180 q 522 384 583 343 q 353 424 460 424 q 257 422 271 424 l 257 528 q 353 526 273 526 q 508 565 447 526 q 568 679 568 603 q 509 795 568 753 q 361 838 450 838 q 228 810 286 838 q 117 725 169 782 l 53 798 q 186 901 106 863 q 371 940 267 940 q 596 874 508 940 q 684 694 684 808 q 665 606 684 646 q 616 541 646 566 q 553 500 586 515 q 485 479 519 485 q 554 461 518 476 q 623 419 589 446 q 677 348 656 392 q 699 250 699 303 q 609 58 699 133 q 370 -17 520 -17 q 172 26 258 -17 q 40 136 86 69 z "},"4":{"ha":774,"x_min":45,"x_max":730,"o":"m 45 235 l 45 330 l 441 926 l 600 926 l 600 336 l 730 336 l 730 235 l 600 235 l 600 0 l 485 0 l 485 235 l 45 235 m 160 336 l 485 336 l 485 819 l 160 336 z "},"5":{"ha":819,"x_min":92,"x_max":749,"o":"m 92 132 l 163 210 q 418 86 258 86 q 572 143 511 86 q 632 285 632 199 q 573 430 632 376 q 419 485 513 485 q 205 399 296 485 l 121 428 l 121 926 l 688 926 l 688 823 l 236 823 l 236 501 q 330 561 273 538 q 453 585 387 585 q 565 565 512 585 q 659 509 618 545 q 724 416 700 473 q 749 289 749 359 q 654 67 749 151 q 418 -17 560 -17 q 92 132 204 -17 z "},"6":{"ha":821,"x_min":71,"x_max":753,"o":"m 71 463 q 84 608 71 539 q 129 739 98 677 q 202 844 159 800 q 310 914 246 888 q 449 940 373 940 q 704 829 609 940 l 646 743 q 561 813 606 789 q 449 838 516 838 q 353 817 397 838 q 278 762 309 797 q 228 680 248 727 q 197 581 207 633 q 187 473 187 529 l 187 437 q 295 537 222 492 q 450 582 368 582 q 568 563 513 582 q 664 509 623 545 q 729 415 705 473 q 753 286 753 358 q 730 171 753 226 q 667 75 707 117 q 564 8 626 33 q 429 -17 503 -17 q 292 9 353 -17 q 191 79 231 35 q 122 184 150 123 q 83 315 95 246 q 71 463 71 385 m 192 345 q 204 273 195 308 q 231 204 213 239 q 275 144 250 170 q 339 102 300 118 q 424 86 377 86 q 517 104 475 86 q 584 151 559 122 q 623 214 609 180 q 636 282 636 248 q 577 431 636 380 q 424 482 517 482 q 293 444 355 482 q 192 345 231 406 z "},"7":{"ha":715,"x_min":43,"x_max":675,"o":"m 43 823 l 43 926 l 675 926 l 675 847 l 296 0 l 168 0 l 542 823 l 43 823 z "},"8":{"ha":808,"x_min":72,"x_max":736,"o":"m 72 235 q 136 386 72 322 q 293 478 199 450 q 192 522 236 494 q 117 596 147 549 q 87 700 87 642 q 115 807 87 760 q 189 883 142 854 q 290 925 235 911 q 404 940 345 940 q 518 925 463 940 q 620 883 574 911 q 694 807 667 854 q 722 700 722 760 q 664 560 722 616 q 515 478 605 504 q 672 386 609 450 q 736 235 736 322 q 641 52 736 121 q 404 -17 545 -17 q 237 13 312 -17 q 117 100 162 42 q 72 235 72 158 m 189 248 q 252 131 189 175 q 404 86 315 86 q 556 131 493 86 q 619 248 619 175 q 602 312 619 282 q 560 361 585 342 q 504 395 535 380 q 449 417 473 410 q 404 427 424 425 q 360 417 385 425 q 304 395 335 410 q 248 361 273 380 q 206 312 223 342 q 189 248 189 282 m 204 685 q 220 626 204 653 q 258 583 236 600 q 310 553 280 566 q 361 534 340 540 q 404 525 383 528 q 447 534 425 528 q 499 553 469 540 q 551 583 529 566 q 590 626 574 600 q 606 685 606 653 q 548 796 606 755 q 404 838 490 838 q 261 796 317 838 q 204 685 204 755 z "},"9":{"ha":821,"x_min":68,"x_max":751,"o":"m 68 639 q 91 754 68 699 q 154 850 113 808 q 257 917 195 892 q 393 942 319 942 q 530 916 469 942 q 631 846 591 890 q 700 741 672 802 q 739 610 727 679 q 751 463 751 541 q 737 316 751 386 q 693 186 723 247 q 619 81 663 125 q 512 10 575 36 q 374 -16 450 -16 q 117 96 216 -16 l 175 182 q 260 112 214 136 q 374 87 307 87 q 493 119 441 87 q 575 204 545 151 q 620 320 605 257 q 635 452 635 382 q 633 488 635 475 q 526 388 599 433 q 372 343 454 343 q 219 375 287 343 q 110 475 152 407 q 68 639 68 543 m 184 643 q 244 494 184 545 q 399 443 304 443 q 530 481 467 443 q 631 582 593 519 q 618 653 627 618 q 590 722 609 687 q 546 782 572 756 q 483 823 521 807 q 397 839 444 839 q 305 821 347 839 q 237 774 263 803 q 198 711 212 745 q 184 643 184 677 z "},"\u0000":{"ha":0,"x_min":0,"x_max":0,"o":""},"\r":{"ha":0,"x_min":0,"x_max":0,"o":""}," ":{"ha":359,"x_min":0,"x_max":0,"o":""},"!":{"ha":319,"x_min":83,"x_max":236,"o":"m 83 62 q 106 116 83 94 q 160 139 129 139 q 214 116 191 139 q 236 62 236 94 q 213 9 236 32 q 160 -14 191 -14 q 106 9 129 -14 q 83 62 83 33 m 94 926 l 225 926 l 203 260 l 117 260 l 94 926 z "},"\"":{"ha":477,"x_min":75,"x_max":403,"o":"m 75 876 q 94 921 75 902 q 138 940 112 940 q 183 921 164 940 q 201 876 201 903 q 192 791 201 867 q 174 644 183 715 l 164 572 l 113 572 q 75 876 75 857 m 277 876 q 295 921 277 903 q 340 940 314 940 q 385 921 366 940 q 403 876 403 902 q 393 791 403 867 q 374 644 384 715 l 366 572 l 314 572 q 277 876 277 857 z "},"#":{"ha":821,"x_min":31,"x_max":790,"o":"m 31 252 l 54 325 l 203 325 l 294 602 l 144 602 l 167 673 l 319 673 l 403 926 l 489 926 l 406 673 l 558 673 l 642 926 l 726 926 l 642 673 l 790 673 l 770 602 l 618 602 l 525 325 l 679 325 l 657 252 l 500 252 l 416 0 l 332 0 l 416 252 l 262 252 l 179 0 l 93 0 l 178 252 l 31 252 m 288 325 l 440 325 l 533 602 l 380 602 l 288 325 z "},"$":{"ha":823,"x_min":60,"x_max":757,"o":"m 60 131 l 129 220 q 235 133 172 169 q 376 89 298 98 l 376 427 q 315 444 340 437 q 258 465 291 452 q 203 490 225 477 q 158 523 182 503 q 120 565 134 543 q 98 617 106 587 q 89 684 89 648 q 169 860 89 790 q 376 940 250 930 l 376 1067 l 461 1067 l 461 939 q 736 811 627 925 l 667 726 q 461 833 585 817 l 461 530 q 523 512 498 520 q 582 490 549 504 q 638 463 615 477 q 685 427 661 448 q 724 382 709 406 q 748 326 739 359 q 757 256 757 294 q 740 162 757 207 q 690 79 724 118 q 597 15 656 41 q 461 -16 538 -10 l 461 -139 l 376 -139 l 376 -16 q 195 30 275 -9 q 60 131 114 68 m 208 690 q 220 641 208 663 q 257 603 233 619 q 310 575 282 587 q 376 553 337 564 l 376 836 q 255 791 302 831 q 208 690 208 751 m 461 87 q 595 143 552 97 q 637 248 637 190 q 624 306 637 280 q 585 349 611 331 q 530 380 559 368 q 461 404 502 392 l 461 87 z "},"%":{"ha":1017,"x_min":43,"x_max":972,"o":"m 43 710 q 105 875 43 810 q 267 940 168 940 q 428 875 366 940 q 490 710 490 810 q 428 548 490 613 q 267 484 366 484 q 105 548 168 484 q 43 710 43 613 m 126 710 q 166 599 126 644 q 267 554 205 554 q 368 599 328 554 q 407 710 407 644 q 368 824 407 779 q 267 869 329 869 q 166 824 205 869 q 126 710 126 779 m 178 0 l 770 926 l 847 926 l 254 0 l 178 0 m 589 48 q 558 81 589 48 q 526 211 526 113 q 589 374 526 309 q 750 440 652 440 q 910 374 848 440 q 972 211 972 309 q 910 48 972 113 q 750 -17 848 -17 q 589 48 652 -17 m 608 211 q 648 99 608 143 q 750 54 687 54 q 851 99 812 54 q 890 211 890 144 q 851 325 890 279 q 750 370 812 370 q 648 325 687 370 q 608 211 608 279 z "},"&":{"ha":891,"x_min":52,"x_max":851,"o":"m 52 241 q 67 337 52 294 q 114 413 83 380 q 178 470 145 446 q 256 518 210 494 q 184 726 184 640 q 251 879 184 818 q 418 940 318 940 q 568 892 510 940 q 627 758 627 844 q 619 703 627 729 q 601 657 611 677 q 570 616 591 637 q 533 582 549 595 q 488 551 517 569 q 441 524 458 533 q 390 497 424 515 q 498 366 431 443 q 608 241 546 308 q 708 454 668 332 l 798 414 q 671 175 738 269 q 851 0 757 87 l 707 0 q 606 97 679 24 q 339 -17 492 -17 q 228 0 279 -17 q 136 48 176 16 q 74 129 97 79 q 52 241 52 179 m 163 249 q 217 118 163 166 q 350 69 272 69 q 543 161 453 69 q 415 301 448 262 q 300 449 345 382 q 198 362 234 409 q 163 249 163 315 m 292 724 q 347 564 292 659 q 418 602 391 585 q 474 642 446 618 q 517 693 503 665 q 530 754 530 721 q 500 832 530 804 q 421 860 469 860 q 329 822 367 860 q 292 724 292 783 z "},"'":{"ha":276,"x_min":75,"x_max":201,"o":"m 75 876 q 94 921 75 902 q 138 940 112 940 q 183 921 164 940 q 201 876 201 903 q 192 791 201 867 q 174 644 183 715 l 164 572 l 113 572 q 75 876 75 857 z "},"(":{"ha":344,"x_min":61,"x_max":321,"o":"m 112 12 q 86 92 112 12 q 61 338 61 171 q 112 663 61 505 q 257 951 163 821 l 321 904 q 211 630 247 760 q 175 338 175 501 q 211 45 175 175 q 321 -228 247 -85 l 257 -277 q 112 12 163 -146 z "},")":{"ha":344,"x_min":24,"x_max":283,"o":"m 24 -228 q 134 45 98 -85 q 170 338 170 175 q 134 630 170 501 q 24 904 98 760 l 87 951 q 233 663 182 821 q 283 338 283 505 q 233 12 283 171 q 87 -277 182 -146 l 24 -228 z "},"*":{"ha":472,"x_min":47,"x_max":425,"o":"m 47 668 l 189 741 l 47 812 l 78 868 l 212 781 l 204 940 l 268 940 l 260 781 l 393 868 l 425 812 l 283 741 l 425 668 l 393 614 l 260 700 l 268 541 l 204 541 l 212 700 l 78 614 l 47 668 z "},"+":{"ha":692,"x_min":40,"x_max":653,"o":"m 40 432 l 40 504 l 307 504 l 307 791 l 386 791 l 386 504 l 653 504 l 653 432 l 386 432 l 386 136 l 307 136 l 307 432 l 40 432 z "},",":{"ha":319,"x_min":79,"x_max":244,"o":"m 79 -134 q 140 -75 114 -111 q 170 -4 165 -38 q 150 -7 164 -7 q 103 14 122 -7 q 83 64 83 34 q 105 117 83 94 q 157 139 126 139 q 219 110 194 139 q 244 33 244 81 q 213 -84 244 -28 q 132 -176 182 -140 l 79 -134 z "},"-":{"ha":416,"x_min":41,"x_max":375,"o":"m 41 290 l 41 382 l 375 382 l 375 290 l 41 290 z "},".":{"ha":321,"x_min":83,"x_max":236,"o":"m 106 9 q 95 20 106 9 q 83 62 83 31 q 106 116 83 94 q 160 139 129 139 q 214 116 191 139 q 236 62 236 94 q 214 9 236 31 q 160 -14 191 -14 q 106 9 129 -14 z "},"/":{"ha":411,"x_min":0,"x_max":411,"o":"m 0 -28 l 329 954 l 411 954 l 82 -28 l 0 -28 z "},":":{"ha":312,"x_min":83,"x_max":236,"o":"m 106 9 q 95 20 106 9 q 83 62 83 31 q 106 116 83 94 q 160 139 129 139 q 214 116 191 139 q 236 62 236 94 q 214 9 236 31 q 160 -14 191 -14 q 106 9 129 -14 m 83 604 q 106 658 83 635 q 160 681 129 681 q 214 658 191 681 q 236 604 236 635 q 213 551 236 574 q 160 528 191 528 q 106 551 130 528 q 83 604 83 574 z "},";":{"ha":319,"x_min":79,"x_max":244,"o":"m 79 -132 q 139 -73 113 -110 q 170 -1 165 -35 q 150 -4 164 -4 q 102 16 121 -4 q 83 66 83 36 q 105 119 83 97 q 157 142 126 142 q 219 113 194 142 q 244 36 244 84 q 213 -82 244 -26 q 132 -174 182 -138 l 79 -132 m 83 604 q 106 658 83 635 q 160 681 129 681 q 214 658 191 681 q 236 604 236 635 q 213 551 236 574 q 160 528 191 528 q 106 551 130 528 q 83 604 83 574 z "},"<":{"ha":692,"x_min":40,"x_max":653,"o":"m 40 428 l 40 501 l 653 806 l 653 718 l 129 464 l 653 212 l 653 125 l 40 428 z "},"=":{"ha":692,"x_min":40,"x_max":653,"o":"m 40 293 l 40 367 l 653 367 l 653 293 l 40 293 m 40 561 l 40 635 l 653 635 l 653 561 l 40 561 z "},">":{"ha":692,"x_min":40,"x_max":653,"o":"m 40 125 l 40 212 l 564 464 l 40 718 l 40 806 l 653 501 l 653 428 l 40 125 z "},"?":{"ha":642,"x_min":25,"x_max":599,"o":"m 25 799 q 153 903 76 866 q 326 940 229 940 q 525 879 450 940 q 599 725 599 817 q 584 646 599 682 q 545 585 569 610 q 493 537 522 559 q 436 495 465 515 q 384 456 408 475 q 345 412 360 437 q 330 361 330 388 q 367 294 330 321 l 282 257 q 229 371 229 302 q 243 437 229 407 q 279 489 257 467 q 328 531 301 511 q 381 569 354 551 q 430 607 408 588 q 466 652 452 627 q 479 708 479 678 q 437 800 479 763 q 317 838 395 838 q 189 808 241 838 q 94 724 136 779 l 25 799 m 257 9 q 246 20 257 9 q 235 62 235 31 q 257 116 235 94 q 311 139 280 139 q 365 116 342 139 q 387 62 387 94 q 365 9 387 31 q 311 -14 342 -14 q 257 9 280 -14 z "},"@":{"ha":1087,"x_min":49,"x_max":1038,"o":"m 49 339 q 95 551 49 449 q 216 726 140 652 q 393 843 292 799 q 600 886 494 886 q 829 827 728 886 q 984 667 930 767 q 1038 446 1038 567 q 1017 304 1038 368 q 961 200 996 240 q 884 139 926 161 q 798 118 842 118 q 708 151 742 118 q 671 231 674 184 l 671 240 q 574 152 633 186 q 450 118 515 118 q 296 180 354 118 q 237 345 237 243 q 266 480 237 415 q 339 592 294 545 q 444 666 385 638 q 564 693 503 693 q 674 663 628 693 q 742 585 721 632 l 760 671 l 854 671 l 775 294 q 772 265 772 278 q 791 213 772 232 q 838 193 810 193 q 874 201 855 193 q 914 227 893 208 q 951 274 935 246 q 978 346 968 301 q 989 446 989 391 q 880 728 989 618 q 596 839 772 839 q 405 798 498 839 q 245 688 313 756 q 137 529 178 620 q 97 342 97 437 q 148 142 97 232 q 290 0 199 52 q 494 -52 381 -52 q 753 26 629 -52 l 778 -9 q 489 -97 642 -97 q 264 -39 365 -97 q 106 118 163 18 q 49 339 49 218 m 338 350 q 375 239 338 281 q 479 196 413 196 q 596 232 544 196 q 685 321 649 269 l 725 514 q 674 584 711 553 q 582 615 637 615 q 409 534 480 615 q 338 350 338 454 z "},"A":{"ha":913,"x_min":12,"x_max":901,"o":"m 12 0 l 386 926 l 529 926 l 901 0 l 770 0 l 688 207 l 227 207 l 144 0 l 12 0 m 261 309 l 654 309 l 457 808 l 261 309 z "},"B":{"ha":873,"x_min":109,"x_max":799,"o":"m 109 0 l 109 926 l 521 926 q 710 861 640 926 q 781 690 781 796 q 733 550 781 607 q 618 478 686 493 q 745 400 692 467 q 799 250 799 333 q 727 68 799 137 q 530 0 656 0 l 109 0 m 224 103 l 509 103 q 634 146 589 103 q 679 262 679 189 q 634 376 679 330 q 509 422 589 422 l 224 422 l 224 103 m 224 525 l 501 525 q 619 566 577 525 q 661 673 661 608 q 619 781 661 739 q 501 823 577 823 l 224 823 l 224 525 z "},"C":{"ha":939,"x_min":71,"x_max":900,"o":"m 108 268 q 89 313 108 268 q 71 463 71 358 q 108 657 71 567 q 209 809 145 747 q 360 907 273 871 q 547 942 448 942 q 899 758 770 942 l 803 704 q 694 802 762 765 q 547 839 625 839 q 292 733 394 839 q 191 463 191 628 q 237 268 191 355 q 366 134 284 182 q 547 86 447 86 q 693 123 625 86 q 803 221 762 161 l 900 168 q 547 -17 765 -17 q 360 18 448 -17 q 209 116 273 54 q 108 268 145 178 z "},"D":{"ha":972,"x_min":109,"x_max":900,"o":"m 109 0 l 109 926 l 425 926 q 675 865 566 926 q 842 699 785 804 q 900 463 900 593 q 866 279 900 364 q 771 132 832 194 q 621 35 710 71 q 425 0 532 0 l 109 0 m 224 103 l 425 103 q 616 152 534 103 q 740 281 699 201 q 781 463 781 362 q 740 645 781 564 q 618 774 700 726 q 425 823 536 823 l 224 823 l 224 103 z "},"E":{"ha":790,"x_min":109,"x_max":715,"o":"m 109 0 l 109 926 l 715 926 l 715 823 l 224 823 l 224 525 l 705 525 l 705 422 l 224 422 l 224 103 l 715 103 l 715 0 l 109 0 z "},"F":{"ha":765,"x_min":109,"x_max":715,"o":"m 109 0 l 109 926 l 715 926 l 715 823 l 224 823 l 224 525 l 705 525 l 705 422 l 224 422 l 224 0 l 109 0 z "},"G":{"ha":990,"x_min":71,"x_max":983,"o":"m 71 463 q 108 659 71 568 q 210 811 146 749 q 361 907 274 873 q 547 942 449 942 q 907 770 767 942 l 815 711 q 700 804 770 770 q 547 839 629 839 q 292 733 394 839 q 191 463 191 628 q 237 268 191 355 q 366 134 284 182 q 547 86 447 86 q 673 109 616 86 q 766 173 729 132 q 827 264 804 214 q 859 374 850 315 l 478 374 l 478 476 l 983 476 q 933 219 983 330 q 781 45 882 109 q 539 -18 680 -18 q 358 17 444 -18 q 209 114 273 52 q 108 267 145 176 q 71 463 71 357 z "},"H":{"ha":989,"x_min":109,"x_max":880,"o":"m 109 0 l 109 926 l 224 926 l 224 528 l 765 528 l 765 926 l 880 926 l 880 0 l 765 0 l 765 425 l 224 425 l 224 0 l 109 0 z "},"I":{"ha":332,"x_min":109,"x_max":224,"o":"m 109 0 l 109 926 l 224 926 l 224 0 l 109 0 z "},"J":{"ha":659,"x_min":16,"x_max":551,"o":"m 16 90 l 77 178 q 250 86 149 86 q 386 140 335 86 q 436 281 436 193 l 436 926 l 551 926 l 551 279 q 512 114 551 182 q 407 15 472 46 q 257 -17 342 -17 q 16 90 106 -17 z "},"K":{"ha":834,"x_min":109,"x_max":812,"o":"m 109 0 l 109 926 l 224 926 l 224 449 l 633 926 l 778 926 l 392 488 l 812 0 l 668 0 l 317 416 l 224 311 l 224 0 l 109 0 z "},"L":{"ha":684,"x_min":93,"x_max":639,"o":"m 93 0 l 93 926 l 208 926 l 208 103 l 639 103 l 639 0 l 93 0 z "},"M":{"ha":1123,"x_min":109,"x_max":1015,"o":"m 109 0 l 109 926 l 273 926 l 562 212 l 850 926 l 1015 926 l 1015 0 l 900 0 l 900 779 l 586 0 l 539 0 l 224 779 l 224 0 l 109 0 z "},"N":{"ha":983,"x_min":109,"x_max":875,"o":"m 109 0 l 109 926 l 227 926 l 760 203 l 760 926 l 875 926 l 875 0 l 764 0 l 224 739 l 224 0 l 109 0 z "},"O":{"ha":1062,"x_min":71,"x_max":991,"o":"m 128 218 q 99 272 128 218 q 71 463 71 327 q 128 707 71 598 q 291 879 185 817 q 530 942 396 942 q 770 879 665 942 q 934 707 876 817 q 991 463 991 598 q 934 218 991 327 q 770 46 876 109 q 530 -17 665 -17 q 291 46 396 -17 q 128 218 185 109 m 191 463 q 232 270 191 355 q 351 135 273 184 q 530 86 429 86 q 710 135 632 86 q 830 270 789 184 q 872 463 872 355 q 778 733 872 627 q 530 839 684 839 q 283 733 376 839 q 191 463 191 627 z "},"P":{"ha":815,"x_min":109,"x_max":771,"o":"m 109 0 l 109 926 l 481 926 q 693 846 615 926 q 771 647 771 766 q 693 449 771 529 q 481 368 614 368 l 224 368 l 224 0 l 109 0 m 224 471 l 467 471 q 600 519 549 471 q 652 647 652 568 q 600 774 652 726 q 467 823 549 823 l 224 823 l 224 471 z "},"Q":{"ha":1062,"x_min":71,"x_max":991,"o":"m 128 218 q 99 272 128 218 q 71 463 71 327 q 128 707 71 598 q 291 879 185 817 q 530 942 396 942 q 770 879 665 942 q 934 707 876 817 q 991 463 991 598 q 864 119 991 256 l 951 26 l 872 -43 l 782 53 q 530 -17 674 -17 q 291 46 396 -17 q 128 218 185 109 m 191 463 q 232 270 191 355 q 351 135 273 184 q 530 86 429 86 q 707 134 629 86 l 575 277 l 656 345 l 786 203 q 872 463 872 309 q 778 733 872 627 q 530 839 684 839 q 283 733 376 839 q 191 463 191 627 z "},"R":{"ha":846,"x_min":109,"x_max":781,"o":"m 109 0 l 109 926 l 481 926 q 691 850 610 926 q 772 647 772 774 q 752 536 772 587 q 699 453 732 486 q 622 401 665 420 q 530 378 578 382 l 781 0 l 644 0 l 410 368 l 224 368 l 224 0 l 109 0 m 224 469 l 467 469 q 601 519 549 469 q 653 647 653 568 q 601 774 653 726 q 467 823 549 823 l 224 823 l 224 469 z "},"S":{"ha":814,"x_min":53,"x_max":750,"o":"m 53 131 l 122 220 q 247 124 172 161 q 412 86 321 86 q 516 101 471 86 q 584 140 560 116 q 620 192 608 165 q 631 248 631 218 q 612 314 631 286 q 562 361 593 343 q 489 393 530 379 q 402 419 448 407 q 311 444 357 431 q 224 477 265 457 q 151 523 183 496 q 101 590 119 549 q 82 684 82 631 q 173 870 82 798 q 401 942 263 942 q 729 811 605 942 l 660 726 q 392 838 562 838 q 255 797 309 838 q 201 690 201 755 q 220 632 201 657 q 271 591 239 607 q 343 562 302 575 q 430 537 385 549 q 522 511 476 525 q 608 476 567 497 q 681 426 649 454 q 731 355 713 398 q 750 256 750 311 q 731 156 750 203 q 673 70 712 109 q 567 6 635 30 q 408 -17 498 -17 q 204 23 294 -17 q 53 131 114 62 z "},"T":{"ha":791,"x_min":45,"x_max":747,"o":"m 45 823 l 45 926 l 747 926 l 747 823 l 453 823 l 453 0 l 338 0 l 338 823 l 45 823 z "},"U":{"ha":973,"x_min":109,"x_max":865,"o":"m 109 359 l 109 926 l 225 926 l 225 363 q 293 160 225 233 q 486 86 360 86 q 681 160 612 86 q 749 363 749 234 l 749 926 l 865 926 l 865 361 q 768 83 865 184 q 486 -17 671 -17 q 205 84 302 -17 q 109 359 109 184 z "},"V":{"ha":913,"x_min":12,"x_max":901,"o":"m 12 926 l 144 926 l 457 126 l 770 926 l 901 926 l 529 0 l 386 0 l 12 926 z "},"W":{"ha":1226,"x_min":20,"x_max":1207,"o":"m 20 926 l 147 926 l 353 154 l 566 926 l 661 926 l 873 154 l 1078 926 l 1207 926 l 942 0 l 817 0 l 612 747 l 408 0 l 283 0 l 20 926 z "},"X":{"ha":905,"x_min":17,"x_max":889,"o":"m 17 0 l 378 475 l 37 926 l 178 926 l 453 557 l 726 926 l 868 926 l 528 476 l 889 0 l 749 0 l 453 395 l 157 0 l 17 0 z "},"Y":{"ha":869,"x_min":12,"x_max":857,"o":"m 12 926 l 147 926 l 435 496 l 722 926 l 857 926 l 493 392 l 493 0 l 378 0 l 378 392 l 12 926 z "},"Z":{"ha":812,"x_min":66,"x_max":746,"o":"m 66 0 l 66 96 l 587 823 l 66 823 l 66 926 l 736 926 l 736 831 l 214 103 l 746 103 l 746 0 l 66 0 z "},"[":{"ha":337,"x_min":56,"x_max":314,"o":"m 56 -264 l 56 942 l 314 942 l 314 865 l 138 865 l 138 -187 l 314 -187 l 314 -264 l 56 -264 z "},"\\":{"ha":411,"x_min":0,"x_max":411,"o":"m 0 954 l 82 954 l 411 -28 l 329 -28 l 0 954 z "},"]":{"ha":337,"x_min":24,"x_max":283,"o":"m 24 -187 l 201 -187 l 201 865 l 24 865 l 24 942 l 283 942 l 283 -264 l 24 -264 l 24 -187 z "},"^":{"ha":600,"x_min":26,"x_max":574,"o":"m 26 463 l 261 926 l 340 926 l 574 463 l 488 463 l 300 850 l 113 463 l 26 463 z "},"_":{"ha":783,"x_min":-4,"x_max":787,"o":"m -4 -56 l 787 -56 l 787 -132 l -4 -132 l -4 -56 z "},"`":{"ha":313,"x_min":0,"x_max":314,"o":"m 0 972 l 109 972 l 314 772 l 235 772 l 0 972 z "},"a":{"ha":798,"x_min":65,"x_max":694,"o":"m 65 335 q 149 591 65 494 q 364 688 232 688 q 490 656 431 688 q 590 570 549 625 l 590 671 l 694 671 l 694 0 l 590 0 l 590 100 q 492 15 551 47 q 364 -17 433 -17 q 148 78 231 -17 q 65 335 65 174 m 232 522 q 203 485 232 522 q 174 335 174 449 q 232 149 174 221 q 390 77 290 77 q 506 107 450 77 q 590 183 562 138 l 590 486 q 506 563 562 532 q 390 595 450 595 q 232 522 290 595 z "},"b":{"ha":798,"x_min":104,"x_max":733,"o":"m 104 0 l 104 926 l 208 926 l 208 570 q 308 656 249 625 q 435 688 368 688 q 650 591 568 688 q 733 335 733 495 q 650 78 733 174 q 435 -17 568 -17 q 307 15 366 -17 q 208 100 248 47 l 208 0 l 104 0 m 208 182 q 292 107 236 137 q 410 77 349 77 q 567 149 509 77 q 625 335 625 221 q 567 522 625 449 q 410 595 509 595 q 293 563 349 595 q 208 486 236 532 l 208 182 z "},"c":{"ha":688,"x_min":65,"x_max":646,"o":"m 65 336 q 107 515 65 435 q 225 641 149 595 q 400 688 302 688 q 646 571 555 688 l 576 509 q 406 595 513 595 q 237 522 300 595 q 174 336 174 450 q 237 150 174 223 q 406 77 301 77 q 576 164 511 77 l 646 100 q 400 -17 555 -17 q 159 84 252 -17 q 65 336 65 185 z "},"d":{"ha":798,"x_min":65,"x_max":694,"o":"m 65 335 q 149 591 65 494 q 364 688 232 688 q 490 656 431 688 q 590 570 549 625 l 590 926 l 694 926 l 694 0 l 590 0 l 590 100 q 492 15 551 47 q 364 -17 433 -17 q 148 78 231 -17 q 65 335 65 174 m 232 522 q 203 485 232 522 q 174 335 174 449 q 232 149 174 221 q 390 77 290 77 q 506 107 450 77 q 590 183 562 138 l 590 486 q 506 563 562 532 q 390 595 450 595 q 232 522 290 595 z "},"e":{"ha":782,"x_min":65,"x_max":718,"o":"m 65 336 q 107 513 65 433 q 226 641 150 593 q 396 688 302 688 q 569 640 495 688 q 681 510 643 591 q 718 328 718 429 l 718 301 l 176 301 q 247 136 182 202 q 416 69 312 69 q 530 92 475 69 q 625 155 585 114 l 675 87 q 408 -17 568 -17 q 161 81 258 -17 q 65 336 65 180 m 175 379 l 615 379 q 601 456 614 418 q 562 527 588 494 q 493 581 536 560 q 395 602 450 602 q 301 581 343 602 q 233 528 259 561 q 192 457 207 495 q 175 379 177 418 z "},"f":{"ha":394,"x_min":22,"x_max":431,"o":"m 22 579 l 22 671 l 134 671 l 134 722 q 186 882 134 825 q 328 940 239 940 q 431 918 392 940 l 404 839 q 345 854 376 854 q 265 821 292 854 q 237 722 237 787 l 237 671 l 374 671 l 374 579 l 237 579 l 237 0 l 134 0 l 134 579 l 22 579 z "},"g":{"ha":798,"x_min":65,"x_max":694,"o":"m 65 339 q 148 593 65 498 q 364 688 231 688 q 490 656 431 688 q 590 570 549 625 l 590 671 l 694 671 l 694 9 q 668 -123 694 -67 q 595 -211 642 -180 q 494 -257 549 -243 q 374 -272 439 -272 q 223 -250 286 -272 q 103 -171 161 -229 l 155 -96 q 249 -165 197 -144 q 374 -186 300 -186 q 528 -138 466 -186 q 590 9 590 -90 l 590 111 q 491 25 551 58 q 364 -8 432 -8 q 148 85 231 -8 q 65 339 65 179 m 174 339 q 232 156 174 227 q 390 85 290 85 q 505 116 450 85 q 590 193 561 148 l 590 488 q 505 564 561 532 q 390 595 449 595 q 232 524 290 595 q 174 339 174 453 z "},"h":{"ha":766,"x_min":106,"x_max":663,"o":"m 106 0 l 106 926 l 210 926 l 210 574 q 312 654 248 621 q 449 688 377 688 q 663 473 663 688 l 663 0 l 558 0 l 558 441 q 519 561 558 526 q 407 595 481 595 q 295 564 349 595 q 210 490 241 534 l 210 0 l 106 0 z "},"i":{"ha":312,"x_min":86,"x_max":227,"o":"m 107 787 q 96 797 107 787 q 86 836 86 807 q 107 886 86 865 q 157 907 127 907 q 206 886 186 907 q 227 836 227 865 q 206 787 227 807 q 157 766 186 766 q 107 787 127 766 m 104 0 l 104 671 l 208 671 l 208 0 l 104 0 z "},"j":{"ha":312,"x_min":-136,"x_max":227,"o":"m -136 -222 l -100 -144 q -4 -186 -58 -186 q 75 -156 45 -186 q 104 -65 104 -126 l 104 671 l 208 671 l 208 -65 q 157 -218 208 -165 q 9 -272 106 -272 q -72 -260 -39 -272 q -136 -222 -104 -249 m 107 787 q 96 797 107 787 q 86 836 86 807 q 107 886 86 865 q 157 907 127 907 q 206 886 186 907 q 227 836 227 865 q 206 787 227 807 q 157 766 186 766 q 107 787 127 766 z "},"k":{"ha":713,"x_min":104,"x_max":694,"o":"m 104 0 l 104 926 l 208 926 l 208 314 l 561 671 l 693 671 l 396 367 l 694 0 l 561 0 l 321 301 l 208 192 l 208 0 l 104 0 z "},"l":{"ha":373,"x_min":104,"x_max":378,"o":"m 104 140 l 104 926 l 208 926 l 208 163 q 226 100 208 123 q 277 77 243 77 q 317 85 298 77 q 346 106 336 94 l 378 26 q 253 -17 330 -17 q 142 24 180 -17 q 104 140 104 65 z "},"m":{"ha":1122,"x_min":104,"x_max":1018,"o":"m 104 0 l 104 671 l 208 671 l 208 574 q 297 650 235 613 q 427 688 359 688 q 545 653 499 688 q 606 562 590 618 q 699 650 636 612 q 831 688 762 688 q 970 637 923 688 q 1018 485 1018 586 l 1018 0 l 914 0 l 914 456 q 790 595 914 595 q 690 565 740 595 q 612 492 640 534 l 612 0 l 509 0 l 509 456 q 385 595 509 595 q 286 564 336 595 q 208 490 237 533 l 208 0 l 104 0 z "},"n":{"ha":766,"x_min":104,"x_max":661,"o":"m 104 0 l 104 671 l 208 671 l 208 574 q 313 654 248 621 q 449 688 378 688 q 661 471 661 688 l 661 0 l 558 0 l 558 439 q 519 559 558 524 q 407 595 479 595 q 295 564 349 595 q 208 490 241 534 l 208 0 l 104 0 z "},"o":{"ha":794,"x_min":65,"x_max":729,"o":"m 105 159 q 85 199 105 159 q 65 336 65 239 q 105 513 65 434 q 221 640 145 593 q 397 688 298 688 q 573 640 497 688 q 689 513 650 593 q 729 336 729 434 q 689 159 729 239 q 573 31 650 79 q 397 -17 497 -17 q 221 31 298 -17 q 105 159 145 79 m 175 336 q 235 152 175 228 q 397 77 294 77 q 518 113 467 77 q 594 208 569 150 q 619 336 619 266 q 594 464 619 406 q 518 558 569 522 q 397 595 467 595 q 277 558 328 595 q 200 464 225 522 q 175 336 175 406 z "},"p":{"ha":794,"x_min":104,"x_max":733,"o":"m 104 -256 l 104 671 l 208 671 l 208 571 q 306 656 246 624 q 435 688 366 688 q 651 593 568 688 q 733 336 733 498 q 651 79 733 176 q 435 -17 568 -17 q 309 14 367 -17 q 208 102 251 45 l 208 -256 l 104 -256 m 208 184 q 292 108 236 139 q 408 77 349 77 q 566 150 507 77 q 624 336 624 222 q 566 523 624 450 q 408 595 507 595 q 292 564 349 595 q 208 488 236 532 l 208 184 z "},"q":{"ha":794,"x_min":61,"x_max":690,"o":"m 61 336 q 143 593 61 498 q 359 688 226 688 q 488 656 428 688 q 586 571 548 624 l 586 671 l 690 671 l 690 -256 l 586 -256 l 586 102 q 485 14 543 45 q 359 -17 427 -17 q 143 79 226 -17 q 61 336 61 176 m 229 523 q 200 486 229 523 q 171 336 171 450 q 229 150 171 222 q 386 77 287 77 q 502 108 446 77 q 586 184 558 139 l 586 488 q 502 564 558 532 q 386 595 446 595 q 229 523 287 595 z "},"r":{"ha":458,"x_min":104,"x_max":432,"o":"m 104 0 l 104 671 l 208 671 l 208 564 q 309 653 252 619 q 432 686 367 686 l 432 579 q 392 582 408 582 q 288 549 344 582 q 208 475 231 516 l 208 0 l 104 0 z "},"s":{"ha":646,"x_min":47,"x_max":581,"o":"m 47 89 l 100 164 q 195 96 136 123 q 321 68 255 68 q 438 100 396 68 q 481 183 481 132 q 458 238 481 216 q 398 273 435 260 q 317 295 361 285 q 229 319 273 305 q 148 352 184 332 q 88 408 111 372 q 65 494 65 444 q 132 632 65 577 q 314 688 198 688 q 562 590 467 688 l 514 518 q 430 579 483 556 q 314 603 378 603 q 206 573 247 603 q 165 497 165 543 q 189 448 165 468 q 248 417 212 428 q 329 396 284 406 q 417 372 373 386 q 498 337 462 357 q 557 277 534 316 q 581 186 581 239 q 512 40 581 98 q 318 -17 443 -17 q 47 89 149 -17 z "},"t":{"ha":408,"x_min":14,"x_max":399,"o":"m 14 579 l 14 671 l 125 671 l 125 854 l 231 854 l 231 671 l 367 671 l 367 579 l 231 579 l 231 163 q 248 100 231 123 q 297 77 264 77 q 368 106 343 77 l 399 26 q 275 -17 353 -17 q 163 24 201 -17 q 125 140 125 65 l 125 579 l 14 579 z "},"u":{"ha":765,"x_min":104,"x_max":661,"o":"m 104 197 l 104 671 l 208 671 l 208 229 q 247 111 208 145 q 359 77 286 77 q 472 106 418 77 q 557 178 526 135 l 557 671 l 661 671 l 661 0 l 557 0 l 557 94 q 452 15 515 47 q 318 -17 389 -17 q 104 197 104 -17 z "},"v":{"ha":680,"x_min":4,"x_max":676,"o":"m 4 671 l 118 671 l 340 121 l 564 671 l 676 671 l 397 0 l 283 0 l 4 671 z "},"w":{"ha":1019,"x_min":17,"x_max":1004,"o":"m 17 671 l 125 671 l 289 136 l 465 671 l 555 671 l 730 136 l 895 671 l 1004 671 l 790 0 l 685 0 l 510 539 l 335 0 l 231 0 l 17 671 z "},"x":{"ha":676,"x_min":17,"x_max":660,"o":"m 17 0 l 273 345 l 31 671 l 151 671 l 338 415 l 525 671 l 644 671 l 401 345 l 660 0 l 541 0 l 338 275 l 136 0 l 17 0 z "},"y":{"ha":765,"x_min":97,"x_max":661,"o":"m 97 -171 l 150 -96 q 354 -186 222 -186 q 503 -135 449 -186 q 557 8 557 -83 l 557 109 q 452 29 515 61 q 318 -3 389 -3 q 104 211 104 -3 l 104 671 l 208 671 l 208 243 q 247 124 208 159 q 359 89 286 89 q 471 119 417 89 q 557 191 526 149 l 557 671 l 661 671 l 661 8 q 637 -116 661 -61 q 570 -204 612 -170 q 472 -255 527 -237 q 354 -272 417 -272 q 210 -247 272 -272 q 97 -171 149 -222 z "},"z":{"ha":655,"x_min":72,"x_max":583,"o":"m 72 0 l 72 82 l 441 579 l 72 579 l 72 671 l 578 671 l 578 591 l 205 92 l 583 92 l 583 0 l 72 0 z "},"{":{"ha":362,"x_min":7,"x_max":339,"o":"m 7 304 l 7 374 q 62 401 43 374 q 81 469 81 428 l 81 754 q 132 890 81 838 q 253 942 184 942 l 339 942 l 339 865 l 253 865 q 189 834 216 865 q 161 755 161 803 l 161 461 q 98 339 161 366 q 161 216 161 312 l 161 -77 q 189 -155 161 -123 q 253 -187 216 -187 l 339 -187 l 339 -264 l 253 -264 q 132 -212 184 -264 q 81 -78 81 -160 l 81 208 q 62 277 81 250 q 7 304 43 304 z "},"|":{"ha":293,"x_min":109,"x_max":184,"o":"m 109 -28 l 109 954 l 184 954 l 184 -28 l 109 -28 z "},"}":{"ha":362,"x_min":24,"x_max":354,"o":"m 24 -187 l 109 -187 q 174 -155 146 -187 q 201 -77 201 -123 l 201 216 q 264 339 201 313 q 201 461 201 366 l 201 755 q 174 834 201 804 q 109 865 147 865 l 24 865 l 24 942 l 109 942 q 230 890 178 942 q 282 754 282 838 l 282 469 q 301 401 282 428 q 354 374 319 374 l 354 304 q 301 277 319 304 q 282 208 282 250 l 282 -78 q 230 -212 282 -160 q 109 -264 178 -264 l 24 -264 l 24 -187 z "},"~":{"ha":699,"x_min":37,"x_max":660,"o":"m 37 596 q 50 695 43 651 q 72 784 58 740 q 107 858 87 829 q 159 906 127 888 q 229 925 190 925 q 292 910 264 925 q 335 872 319 896 q 363 821 351 849 q 385 764 375 792 q 405 712 394 736 q 431 674 415 689 q 469 660 448 660 q 544 729 517 660 q 583 926 570 798 l 660 918 q 647 819 654 863 q 626 730 640 775 q 591 655 611 684 q 541 606 572 625 q 469 587 509 587 q 398 607 429 587 q 353 656 368 627 q 325 719 338 685 q 301 783 311 753 q 273 831 291 812 q 229 851 254 851 q 185 832 204 851 q 153 777 166 813 q 130 693 139 740 q 115 586 121 647 l 37 596 z "}," ":{"ha":359,"x_min":0,"x_max":0,"o":""},"¡":{"ha":319,"x_min":83,"x_max":235,"o":"m 83 608 q 106 662 83 640 q 160 685 129 685 q 213 662 191 685 q 235 608 235 640 q 213 555 235 578 q 160 533 191 533 q 106 556 129 533 q 83 608 83 578 m 94 -256 l 115 411 l 203 411 l 225 -256 l 94 -256 z "},"¢":{"ha":688,"x_min":65,"x_max":646,"o":"m 65 336 q 143 569 65 473 q 350 684 222 666 l 350 785 l 432 785 l 432 686 q 646 571 562 676 l 576 509 q 432 593 522 584 l 432 78 q 576 164 519 86 l 646 100 q 432 -16 564 -5 l 432 -139 l 350 -139 l 350 -12 q 143 102 222 5 q 65 336 65 199 m 174 336 q 221 170 174 239 q 350 82 268 101 l 350 589 q 221 501 269 570 q 174 336 174 433 z "},"£":{"ha":719,"x_min":28,"x_max":705,"o":"m 28 372 l 28 447 l 174 447 q 104 534 121 507 q 66 667 66 597 q 109 805 66 742 q 223 904 151 868 q 378 940 294 940 q 546 899 473 940 q 659 785 620 859 l 566 729 q 498 810 547 777 q 389 843 450 843 q 249 794 306 843 q 192 665 192 746 q 198 611 192 636 q 218 562 204 585 q 242 523 231 538 q 274 483 254 507 q 302 447 294 459 l 511 447 l 511 372 l 342 372 q 351 313 351 340 q 245 129 351 203 q 318 142 286 142 q 425 113 363 142 q 524 85 486 85 q 603 102 566 85 q 656 140 640 119 l 705 47 q 518 -18 637 -18 q 441 -8 476 -18 q 386 14 406 2 q 335 36 366 26 q 269 46 304 46 q 106 -9 212 46 l 65 78 q 201 172 153 117 q 249 289 249 227 q 228 372 249 329 l 28 372 z "},"¥":{"ha":869,"x_min":12,"x_max":857,"o":"m 12 926 l 147 926 l 435 496 l 722 926 l 857 926 l 542 464 l 840 464 l 840 392 l 493 392 l 493 243 l 840 243 l 840 170 l 493 170 l 493 0 l 378 0 l 378 170 l 31 170 l 31 243 l 378 243 l 378 392 l 31 392 l 31 464 l 328 464 l 12 926 z "},"¦":{"ha":293,"x_min":109,"x_max":184,"o":"m 109 -28 l 109 411 l 184 411 l 184 -28 l 109 -28 m 109 515 l 109 954 l 184 954 l 184 515 l 109 515 z "},"§":{"ha":650,"x_min":47,"x_max":581,"o":"m 47 -4 l 100 64 q 191 -6 134 22 q 318 -35 248 -35 q 436 -3 391 -35 q 481 85 481 29 q 458 143 481 119 q 398 180 435 167 q 317 204 361 193 q 229 229 273 215 q 148 262 184 243 q 88 318 111 281 q 65 404 65 354 q 110 517 65 473 q 224 581 155 562 q 106 646 147 605 q 65 753 65 686 q 133 886 65 832 q 314 940 200 940 q 562 842 474 940 l 514 779 q 428 842 480 821 q 318 863 375 863 q 208 832 250 863 q 165 751 165 802 q 180 709 165 727 q 218 679 194 690 q 273 659 242 668 q 339 642 304 650 q 407 625 373 634 q 473 600 441 615 q 528 565 504 585 q 566 512 552 544 q 581 437 581 479 q 548 333 581 379 q 453 261 515 288 q 548 196 515 237 q 581 92 581 156 q 508 -58 581 -3 q 318 -113 435 -113 q 162 -84 224 -113 q 47 -4 100 -55 m 165 414 q 195 352 165 378 q 253 317 224 327 q 345 292 282 308 q 363 288 357 289 q 449 345 420 313 q 478 425 478 378 q 465 475 478 454 q 427 511 452 496 q 379 534 402 526 q 321 551 355 543 q 200 496 235 530 q 165 414 165 462 z "},"¨":{"ha":378,"x_min":-20,"x_max":397,"o":"m -20 839 q 0 884 -20 865 q 46 903 19 903 q 91 884 73 903 q 110 839 110 865 q 91 794 110 813 q 46 775 72 775 q 0 794 19 775 q -20 839 -20 813 m 268 839 q 287 884 268 865 q 332 903 305 903 q 378 884 359 903 q 397 839 397 865 q 378 794 397 813 q 332 775 359 775 q 287 794 306 775 q 268 839 268 813 z "},"©":{"ha":1080,"x_min":61,"x_max":1019,"o":"m 61 464 q 125 705 61 594 q 300 879 190 815 q 541 943 411 943 q 727 905 638 943 q 880 803 816 867 q 981 650 943 739 q 1019 464 1019 562 q 981 278 1019 367 q 880 125 943 189 q 727 22 816 60 q 541 -16 638 -16 q 300 49 411 -16 q 125 224 190 113 q 61 464 61 334 m 139 633 q 122 593 139 633 q 104 464 104 552 q 139 295 104 376 q 233 156 174 214 q 372 63 291 98 q 541 28 452 28 q 710 63 629 28 q 849 156 791 98 q 942 295 907 215 q 977 464 977 376 q 918 682 977 582 q 759 841 859 783 q 541 900 659 900 q 372 865 452 900 q 233 772 292 831 q 139 633 174 714 m 338 254 q 296 297 338 254 q 254 467 254 340 q 338 677 254 593 q 543 761 422 761 q 746 671 669 761 l 711 636 q 639 694 685 673 q 543 715 593 715 q 376 645 446 715 q 306 465 306 574 q 377 286 306 358 q 543 214 448 214 q 638 236 593 214 q 711 294 684 258 l 747 260 q 543 168 669 168 q 338 254 422 168 z "},"ª":{"ha":525,"x_min":57,"x_max":441,"o":"m 57 586 q 103 691 57 654 q 212 729 150 729 q 363 671 307 729 l 363 747 q 331 813 363 789 q 252 838 298 838 q 115 774 168 838 l 79 827 q 261 900 151 900 q 391 863 340 900 q 441 746 441 825 l 441 453 l 363 453 l 363 501 q 212 441 305 441 q 104 481 151 441 q 57 586 57 520 m 138 586 q 167 519 138 545 q 243 494 197 494 q 311 509 279 494 q 363 547 343 523 l 363 625 q 311 664 343 650 q 243 677 279 677 q 167 652 197 677 q 138 586 138 627 z "},"«":{"ha":610,"x_min":41,"x_max":568,"o":"m 41 338 l 264 583 l 368 583 l 146 338 l 368 87 l 264 87 l 41 338 m 241 338 l 464 583 l 568 583 l 346 338 l 568 87 l 464 87 l 241 338 z "},"¬":{"ha":700,"x_min":40,"x_max":653,"o":"m 40 561 l 40 635 l 653 635 l 653 293 l 576 293 l 576 561 l 40 561 z "},"­":{"ha":416,"x_min":41,"x_max":375,"o":"m 41 290 l 41 382 l 375 382 l 375 290 l 41 290 z "},"®":{"ha":686,"x_min":49,"x_max":637,"o":"m 49 646 q 135 854 49 768 q 343 940 221 940 q 492 901 424 940 q 598 794 559 862 q 637 646 637 726 q 552 437 637 524 q 343 351 466 351 q 135 437 221 351 q 49 646 49 524 m 89 646 q 163 467 89 541 q 343 392 238 392 q 523 467 448 392 q 597 646 597 541 q 523 826 597 753 q 343 900 449 900 q 163 826 237 900 q 89 646 89 753 m 231 476 l 231 814 l 368 814 q 444 785 412 814 q 475 711 475 757 q 444 637 475 663 q 389 611 412 611 l 479 476 l 424 476 l 336 610 l 275 610 l 275 476 l 231 476 m 275 650 l 368 650 q 410 668 391 650 q 429 711 429 686 q 410 757 429 739 q 368 775 391 775 l 275 775 l 275 650 z "},"¯":{"ha":504,"x_min":0,"x_max":504,"o":"m 0 821 l 0 888 l 504 888 l 504 821 l 0 821 z "},"°":{"ha":402,"x_min":32,"x_max":371,"o":"m 32 771 q 81 890 32 841 q 201 940 131 940 q 321 890 271 940 q 371 771 371 841 q 321 651 371 701 q 201 602 271 602 q 81 651 131 602 q 32 771 32 701 m 100 771 q 129 699 100 728 q 201 669 159 669 q 274 699 243 669 q 304 771 304 729 q 274 843 304 812 q 201 873 243 873 q 129 843 159 873 q 100 771 100 813 z "},"±":{"ha":692,"x_min":40,"x_max":653,"o":"m 40 0 l 40 74 l 653 74 l 653 0 l 40 0 m 40 450 l 40 522 l 307 522 l 307 810 l 386 810 l 386 522 l 653 522 l 653 450 l 386 450 l 386 154 l 307 154 l 307 450 l 40 450 z "},"²":{"ha":538,"x_min":68,"x_max":473,"o":"m 68 1061 q 156 1126 101 1103 q 272 1149 211 1149 q 369 1132 325 1149 q 441 1077 412 1116 q 471 985 471 1039 q 451 904 471 944 q 392 821 432 863 q 306 741 352 779 q 192 653 260 703 l 473 653 l 473 585 l 69 585 l 69 647 q 315 844 243 772 q 387 979 387 916 q 353 1055 387 1029 q 269 1080 318 1080 q 179 1060 220 1080 q 114 1008 137 1039 l 68 1061 z "},"³":{"ha":538,"x_min":58,"x_max":476,"o":"m 58 665 l 104 718 q 175 663 132 684 q 265 643 218 643 q 359 669 324 643 q 393 741 393 696 q 354 813 393 791 q 249 836 315 836 q 193 835 201 836 l 193 904 q 249 903 203 903 q 348 924 311 903 q 385 991 385 945 q 349 1057 385 1034 q 260 1080 313 1080 q 109 1014 170 1080 l 65 1063 q 268 1149 140 1149 q 412 1108 357 1149 q 467 1000 467 1068 q 429 912 467 945 q 343 872 391 880 q 386 861 364 870 q 429 836 408 852 q 463 794 450 820 q 476 736 476 768 q 420 620 476 664 q 267 575 363 575 q 141 600 196 575 q 58 665 87 625 z "},"´":{"ha":313,"x_min":0,"x_max":314,"o":"m 0 772 l 205 972 l 314 972 l 79 772 l 0 772 z "},"µ":{"ha":765,"x_min":104,"x_max":661,"o":"m 104 -256 l 104 671 l 208 671 l 208 229 q 247 110 208 145 q 359 74 286 74 q 472 104 417 74 q 557 178 526 134 l 557 671 l 661 671 l 661 0 l 557 0 l 557 94 q 452 15 515 47 q 318 -17 389 -17 q 208 3 255 -17 l 208 -256 l 104 -256 z "},"¶":{"ha":623,"x_min":37,"x_max":525,"o":"m 107 519 q 72 554 107 519 q 37 688 37 589 q 107 857 37 787 q 277 926 178 926 l 525 926 l 525 -139 l 463 -139 l 463 864 l 339 864 l 339 -139 l 277 -139 l 277 449 q 107 519 178 449 z "},"·":{"ha":321,"x_min":83,"x_max":236,"o":"m 83 340 q 106 393 83 370 q 160 415 129 415 q 214 393 191 415 q 236 340 236 370 q 214 287 236 309 q 160 264 191 264 q 106 287 129 264 q 83 340 83 309 z "},"¸":{"ha":284,"x_min":0,"x_max":285,"o":"m 0 -224 l 26 -171 q 138 -211 76 -211 q 198 -195 174 -211 q 222 -153 222 -180 q 209 -117 222 -130 q 171 -104 196 -104 q 118 -127 136 -104 l 72 -102 l 115 16 l 178 16 l 142 -77 q 193 -61 161 -61 q 259 -86 233 -61 q 285 -154 285 -112 q 243 -235 285 -204 q 140 -265 202 -265 q 60 -253 98 -265 q 0 -224 22 -241 z "},"¹":{"ha":326,"x_min":20,"x_max":243,"o":"m 20 987 l 170 1140 l 243 1140 l 243 585 l 160 585 l 160 1032 l 68 936 l 20 987 z "},"º":{"ha":562,"x_min":56,"x_max":507,"o":"m 56 671 q 118 834 56 768 q 281 900 180 900 q 445 834 383 900 q 507 671 507 768 q 445 508 507 574 q 281 441 383 441 q 118 508 180 441 q 56 671 56 574 m 177 786 q 158 763 177 786 q 139 671 139 741 q 177 555 139 601 q 281 509 215 509 q 386 555 347 509 q 425 671 425 601 q 386 786 425 741 q 281 832 347 832 q 177 786 215 832 z "},"»":{"ha":610,"x_min":41,"x_max":568,"o":"m 41 87 l 264 338 l 41 583 l 146 583 l 368 338 l 146 87 l 41 87 m 241 87 l 464 338 l 241 583 l 346 583 l 568 338 l 346 87 l 241 87 z "},"¼":{"ha":1069,"x_min":20,"x_max":1018,"o":"m 20 774 l 170 926 l 243 926 l 243 371 l 160 371 l 160 818 l 68 722 l 20 774 m 151 0 l 743 926 l 819 926 l 227 0 l 151 0 m 583 139 l 583 201 l 823 555 l 939 555 l 939 207 l 1018 207 l 1018 139 l 939 139 l 939 0 l 856 0 l 856 139 l 583 139 m 667 207 l 856 207 l 856 482 l 667 207 z "},"½":{"ha":1120,"x_min":20,"x_max":1055,"o":"m 20 774 l 170 926 l 243 926 l 243 371 l 160 371 l 160 818 l 68 722 l 20 774 m 151 0 l 743 926 l 819 926 l 227 0 l 151 0 m 650 476 q 738 541 683 518 q 854 564 793 564 q 951 547 908 564 q 1024 492 995 530 q 1053 400 1053 454 q 1039 334 1053 368 q 1002 270 1025 300 q 942 204 979 239 q 866 138 905 169 q 774 68 827 106 l 1055 68 l 1055 0 l 652 0 l 652 62 q 898 259 825 187 q 970 395 970 331 q 935 470 970 444 q 851 496 901 496 q 761 475 802 496 q 696 424 719 454 l 650 476 z "},"¾":{"ha":1219,"x_min":58,"x_max":1169,"o":"m 58 452 l 104 504 q 175 449 132 469 q 265 429 218 429 q 359 455 325 429 q 393 526 393 481 q 354 600 393 576 q 249 623 315 623 q 193 621 205 623 l 193 690 q 249 689 203 689 q 348 710 311 689 q 385 778 385 732 q 349 843 385 820 q 260 867 313 867 q 109 800 170 867 l 65 848 q 268 935 140 935 q 412 894 357 935 q 467 786 467 854 q 429 698 467 730 q 343 659 391 666 q 386 647 364 656 q 429 622 408 638 q 463 580 450 606 q 476 522 476 554 q 420 406 476 450 q 267 361 363 361 q 141 386 196 361 q 58 452 87 412 m 301 0 l 893 926 l 970 926 l 376 0 l 301 0 m 734 139 l 734 201 l 975 555 l 1090 555 l 1090 207 l 1169 207 l 1169 139 l 1090 139 l 1090 0 l 1007 0 l 1007 139 l 734 139 m 818 207 l 1007 207 l 1007 482 l 818 207 z "},"¿":{"ha":547,"x_min":43,"x_max":616,"o":"m 43 -57 q 58 22 43 -14 q 96 83 73 58 q 149 131 120 109 q 205 173 177 153 q 258 212 234 193 q 296 256 281 231 q 311 307 311 280 q 275 374 311 348 l 359 411 q 412 297 412 366 q 398 231 412 261 q 362 179 385 201 q 314 137 340 157 q 261 99 288 117 q 213 61 235 80 q 177 16 191 41 q 163 -40 163 -10 q 205 -132 163 -95 q 325 -170 248 -170 q 453 -141 400 -170 q 547 -57 506 -112 l 616 -131 q 489 -235 566 -198 q 315 -272 412 -272 q 117 -211 191 -272 q 43 -57 43 -149 m 277 554 q 266 566 277 554 q 254 608 254 577 q 277 662 254 640 q 330 685 299 685 q 384 662 361 685 q 407 608 407 640 q 384 554 407 577 q 330 532 361 532 q 277 554 299 532 z "},"À":{"ha":913,"x_min":12,"x_max":901,"o":"m 12 0 l 386 926 l 529 926 l 901 0 l 770 0 l 688 207 l 227 207 l 144 0 l 12 0 m 236 1211 l 345 1211 l 550 1011 l 471 1011 l 236 1211 m 261 309 l 654 309 l 457 808 l 261 309 z "},"Á":{"ha":913,"x_min":12,"x_max":901,"o":"m 12 0 l 386 926 l 529 926 l 901 0 l 770 0 l 688 207 l 227 207 l 144 0 l 12 0 m 261 309 l 654 309 l 457 808 l 261 309 m 367 1011 l 572 1211 l 681 1211 l 446 1011 l 367 1011 z "},"Â":{"ha":913,"x_min":12,"x_max":901,"o":"m 12 0 l 386 926 l 529 926 l 901 0 l 770 0 l 688 207 l 227 207 l 144 0 l 12 0 m 261 309 l 654 309 l 457 808 l 261 309 m 275 1011 l 407 1211 l 507 1211 l 643 1011 l 572 1011 l 457 1158 l 346 1011 l 275 1011 z "},"Ã":{"ha":913,"x_min":12,"x_max":901,"o":"m 12 0 l 386 926 l 529 926 l 901 0 l 770 0 l 688 207 l 227 207 l 144 0 l 12 0 m 240 1017 q 276 1152 240 1100 q 375 1203 311 1203 q 417 1194 398 1203 q 449 1170 437 1184 q 473 1139 461 1156 q 494 1108 485 1122 q 517 1084 504 1094 q 546 1075 530 1075 q 594 1105 576 1075 q 612 1194 612 1135 l 675 1194 q 640 1060 675 1111 q 541 1008 604 1008 q 491 1022 513 1008 q 456 1054 469 1035 q 430 1091 442 1072 q 403 1123 418 1109 q 370 1136 388 1136 q 321 1106 340 1136 q 302 1017 302 1076 l 240 1017 m 261 309 l 654 309 l 457 808 l 261 309 z "},"Ä":{"ha":913,"x_min":12,"x_max":901,"o":"m 12 0 l 386 926 l 529 926 l 901 0 l 770 0 l 688 207 l 227 207 l 144 0 l 12 0 m 250 1074 q 269 1119 250 1101 q 315 1137 288 1137 q 360 1119 342 1137 q 379 1074 379 1100 q 360 1029 379 1048 q 315 1010 341 1010 q 269 1029 288 1010 q 250 1074 250 1048 m 261 309 l 654 309 l 457 808 l 261 309 m 538 1074 q 556 1119 538 1100 q 602 1137 575 1137 q 648 1119 629 1137 q 667 1074 667 1101 q 648 1029 667 1048 q 602 1010 629 1010 q 557 1029 576 1010 q 538 1074 538 1048 z "},"Å":{"ha":913,"x_min":12,"x_max":901,"o":"m 12 0 l 386 926 l 529 926 l 901 0 l 770 0 l 688 207 l 227 207 l 144 0 l 12 0 m 261 309 l 654 309 l 457 808 l 261 309 m 361 1002 q 341 1022 361 1002 q 321 1099 321 1042 q 361 1196 321 1155 q 458 1236 402 1236 q 554 1196 515 1236 q 593 1099 593 1156 q 554 1001 593 1042 q 458 961 515 961 q 361 1002 402 961 m 400 1157 q 388 1145 400 1157 q 376 1099 376 1133 q 400 1041 376 1065 q 458 1017 424 1017 q 515 1041 492 1017 q 539 1099 539 1065 q 515 1157 539 1133 q 458 1181 492 1181 q 400 1157 424 1181 z "},"Æ":{"ha":1316,"x_min":9,"x_max":1240,"o":"m 9 0 l 587 926 l 1240 926 l 1240 823 l 749 823 l 749 525 l 1231 525 l 1231 422 l 749 422 l 749 103 l 1240 103 l 1240 0 l 633 0 l 633 207 l 269 207 l 142 0 l 9 0 m 325 309 l 633 309 l 633 808 l 325 309 z "},"Ç":{"ha":939,"x_min":71,"x_max":900,"o":"m 71 463 q 108 657 71 567 q 209 809 145 747 q 360 907 273 871 q 547 942 448 942 q 899 758 770 942 l 803 704 q 694 802 762 765 q 547 839 625 839 q 292 733 394 839 q 191 463 191 628 q 237 268 191 355 q 366 134 284 182 q 547 86 447 86 q 693 123 625 86 q 803 221 762 161 l 900 168 q 561 -17 768 -12 l 541 -71 q 591 -56 559 -56 q 657 -81 631 -56 q 684 -149 684 -106 q 642 -229 684 -199 q 539 -260 601 -260 q 459 -248 496 -260 q 399 -218 421 -236 l 425 -165 q 536 -205 475 -205 q 596 -190 572 -205 q 621 -147 621 -174 q 608 -112 621 -125 q 570 -98 595 -98 q 517 -122 535 -98 l 471 -96 l 500 -14 q 330 33 409 -5 q 194 132 251 71 q 103 278 136 193 q 71 463 71 364 z "},"È":{"ha":790,"x_min":109,"x_max":715,"o":"m 109 0 l 109 926 l 715 926 l 715 823 l 224 823 l 224 525 l 705 525 l 705 422 l 224 422 l 224 103 l 715 103 l 715 0 l 109 0 m 191 1211 l 298 1211 l 504 1011 l 425 1011 l 191 1211 z "},"É":{"ha":790,"x_min":109,"x_max":715,"o":"m 109 0 l 109 926 l 715 926 l 715 823 l 224 823 l 224 525 l 705 525 l 705 422 l 224 422 l 224 103 l 715 103 l 715 0 l 109 0 m 319 1011 l 525 1211 l 633 1211 l 399 1011 l 319 1011 z "},"Ê":{"ha":790,"x_min":109,"x_max":715,"o":"m 109 0 l 109 926 l 715 926 l 715 823 l 224 823 l 224 525 l 705 525 l 705 422 l 224 422 l 224 103 l 715 103 l 715 0 l 109 0 m 227 1011 l 358 1211 l 458 1211 l 595 1011 l 524 1011 l 408 1158 l 297 1011 l 227 1011 z "},"Ë":{"ha":790,"x_min":109,"x_max":715,"o":"m 109 0 l 109 926 l 715 926 l 715 823 l 224 823 l 224 525 l 705 525 l 705 422 l 224 422 l 224 103 l 715 103 l 715 0 l 109 0 m 203 1074 q 222 1119 203 1101 q 268 1137 241 1137 q 313 1119 294 1137 q 332 1074 332 1100 q 313 1029 332 1048 q 268 1010 294 1010 q 222 1029 241 1010 q 203 1074 203 1048 m 490 1074 q 509 1119 490 1100 q 554 1137 528 1137 q 600 1119 581 1137 q 619 1074 619 1101 q 600 1029 619 1048 q 554 1010 581 1010 q 509 1029 528 1010 q 490 1074 490 1048 z "},"Ì":{"ha":332,"x_min":-57,"x_max":257,"o":"m -57 1211 l 52 1211 l 257 1011 l 178 1011 l -57 1211 m 109 0 l 109 926 l 224 926 l 224 0 l 109 0 z "},"Í":{"ha":332,"x_min":77,"x_max":390,"o":"m 77 1011 l 282 1211 l 390 1211 l 155 1011 l 77 1011 m 109 0 l 109 926 l 224 926 l 224 0 l 109 0 z "},"Î":{"ha":332,"x_min":-18,"x_max":350,"o":"m -18 1011 l 114 1211 l 214 1211 l 350 1011 l 279 1011 l 164 1158 l 53 1011 l -18 1011 m 109 0 l 109 926 l 224 926 l 224 0 l 109 0 z "},"Ï":{"ha":332,"x_min":-43,"x_max":374,"o":"m -43 1074 q -24 1119 -43 1101 q 22 1137 -5 1137 q 67 1119 49 1137 q 86 1074 86 1100 q 67 1029 86 1048 q 22 1010 48 1010 q -24 1029 -5 1010 q -43 1074 -43 1048 m 109 0 l 109 926 l 224 926 l 224 0 l 109 0 m 244 1074 q 263 1119 244 1100 q 309 1137 282 1137 q 355 1119 336 1137 q 374 1074 374 1101 q 355 1029 374 1048 q 309 1010 336 1010 q 263 1029 283 1010 q 244 1074 244 1048 z "},"Ð":{"ha":1010,"x_min":14,"x_max":939,"o":"m 14 415 l 14 500 l 147 500 l 147 926 l 464 926 q 714 865 605 926 q 881 699 823 804 q 939 463 939 593 q 905 279 939 364 q 810 132 871 194 q 660 35 749 71 q 464 0 570 0 l 147 0 l 147 415 l 14 415 m 262 103 l 464 103 q 655 152 573 103 q 778 281 737 201 q 819 463 819 362 q 779 645 819 564 q 657 774 739 726 q 464 823 575 823 l 262 823 l 262 500 l 497 500 l 497 415 l 262 415 l 262 103 z "},"Ñ":{"ha":983,"x_min":109,"x_max":875,"o":"m 109 0 l 109 926 l 227 926 l 760 203 l 760 926 l 875 926 l 875 0 l 764 0 l 224 739 l 224 0 l 109 0 m 272 1017 q 308 1152 272 1100 q 407 1203 343 1203 q 449 1194 430 1203 q 481 1170 469 1184 q 505 1139 493 1156 q 526 1108 517 1122 q 549 1084 536 1094 q 578 1075 562 1075 q 626 1105 608 1075 q 644 1194 644 1135 l 707 1194 q 671 1060 707 1111 q 572 1008 636 1008 q 523 1022 545 1008 q 488 1054 501 1035 q 462 1091 474 1072 q 435 1123 450 1109 q 401 1136 420 1136 q 353 1106 372 1136 q 335 1017 335 1076 l 272 1017 z "},"Ò":{"ha":1062,"x_min":71,"x_max":991,"o":"m 128 218 q 99 272 128 218 q 71 463 71 327 q 128 707 71 598 q 291 879 185 817 q 530 942 396 942 q 770 879 665 942 q 934 707 876 817 q 991 463 991 598 q 934 218 991 327 q 770 46 876 109 q 530 -17 665 -17 q 291 46 396 -17 q 128 218 185 109 m 191 463 q 232 270 191 355 q 351 135 273 184 q 530 86 429 86 q 710 135 632 86 q 830 270 789 184 q 872 463 872 355 q 778 733 872 627 q 530 839 684 839 q 283 733 376 839 q 191 463 191 627 m 314 1211 l 422 1211 l 628 1011 l 549 1011 l 314 1211 z "},"Ó":{"ha":1062,"x_min":71,"x_max":991,"o":"m 128 218 q 99 272 128 218 q 71 463 71 327 q 128 707 71 598 q 291 879 185 817 q 530 942 396 942 q 770 879 665 942 q 934 707 876 817 q 991 463 991 598 q 934 218 991 327 q 770 46 876 109 q 530 -17 665 -17 q 291 46 396 -17 q 128 218 185 109 m 191 463 q 232 270 191 355 q 351 135 273 184 q 530 86 429 86 q 710 135 632 86 q 830 270 789 184 q 872 463 872 355 q 778 733 872 627 q 530 839 684 839 q 283 733 376 839 q 191 463 191 627 m 441 1011 l 647 1211 l 755 1211 l 521 1011 l 441 1011 z "},"Ô":{"ha":1062,"x_min":71,"x_max":991,"o":"m 128 218 q 99 272 128 218 q 71 463 71 327 q 128 707 71 598 q 291 879 185 817 q 530 942 396 942 q 770 879 665 942 q 934 707 876 817 q 991 463 991 598 q 934 218 991 327 q 770 46 876 109 q 530 -17 665 -17 q 291 46 396 -17 q 128 218 185 109 m 191 463 q 232 270 191 355 q 351 135 273 184 q 530 86 429 86 q 710 135 632 86 q 830 270 789 184 q 872 463 872 355 q 778 733 872 627 q 530 839 684 839 q 283 733 376 839 q 191 463 191 627 m 350 1011 l 482 1211 l 582 1211 l 718 1011 l 647 1011 l 532 1158 l 421 1011 l 350 1011 z "},"Õ":{"ha":1062,"x_min":71,"x_max":991,"o":"m 128 218 q 99 272 128 218 q 71 463 71 327 q 128 707 71 598 q 291 879 185 817 q 530 942 396 942 q 770 879 665 942 q 934 707 876 817 q 991 463 991 598 q 934 218 991 327 q 770 46 876 109 q 530 -17 665 -17 q 291 46 396 -17 q 128 218 185 109 m 191 463 q 232 270 191 355 q 351 135 273 184 q 530 86 429 86 q 710 135 632 86 q 830 270 789 184 q 872 463 872 355 q 778 733 872 627 q 530 839 684 839 q 283 733 376 839 q 191 463 191 627 m 314 1017 q 350 1152 314 1100 q 449 1203 385 1203 q 498 1190 477 1203 q 533 1158 519 1177 q 559 1120 547 1139 q 586 1088 571 1101 q 619 1075 601 1075 q 668 1105 649 1075 q 686 1194 686 1135 l 749 1194 q 713 1060 749 1111 q 614 1008 677 1008 q 564 1022 586 1008 q 529 1054 543 1035 q 503 1091 515 1072 q 476 1123 491 1109 q 443 1136 461 1136 q 395 1106 413 1136 q 376 1017 376 1076 l 314 1017 z "},"Ö":{"ha":1062,"x_min":71,"x_max":991,"o":"m 128 218 q 99 272 128 218 q 71 463 71 327 q 128 707 71 598 q 291 879 185 817 q 530 942 396 942 q 770 879 665 942 q 934 707 876 817 q 991 463 991 598 q 934 218 991 327 q 770 46 876 109 q 530 -17 665 -17 q 291 46 396 -17 q 128 218 185 109 m 191 463 q 232 270 191 355 q 351 135 273 184 q 530 86 429 86 q 710 135 632 86 q 830 270 789 184 q 872 463 872 355 q 778 733 872 627 q 530 839 684 839 q 283 733 376 839 q 191 463 191 627 m 322 1074 q 341 1119 322 1101 q 387 1137 360 1137 q 433 1119 414 1137 q 452 1074 452 1100 q 432 1029 452 1048 q 387 1010 413 1010 q 341 1029 360 1010 q 322 1074 322 1048 m 610 1074 q 628 1119 610 1100 q 673 1137 647 1137 q 720 1119 701 1137 q 739 1074 739 1100 q 720 1029 739 1048 q 673 1010 701 1010 q 629 1029 648 1010 q 610 1074 610 1048 z "},"×":{"ha":692,"x_min":89,"x_max":604,"o":"m 89 257 l 296 464 l 89 671 l 140 722 l 346 515 l 553 722 l 604 671 l 399 464 l 604 257 l 553 205 l 346 412 l 140 205 l 89 257 z "},"Ø":{"ha":1062,"x_min":71,"x_max":991,"o":"m 71 463 q 128 707 71 598 q 291 879 185 817 q 530 942 396 942 q 762 884 659 942 l 791 926 l 885 926 l 827 839 q 948 676 905 774 q 991 463 991 578 q 934 218 991 327 q 770 46 876 109 q 530 -17 665 -17 q 292 46 399 -17 l 261 0 l 168 0 l 229 90 q 112 252 154 155 q 71 463 71 348 m 191 463 q 292 183 191 288 l 703 794 q 530 839 624 839 q 283 733 376 839 q 191 463 191 627 m 351 135 q 530 86 428 86 q 710 135 632 86 q 830 270 789 184 q 872 463 872 355 q 844 623 872 549 q 764 747 816 696 l 351 135 z "},"Ù":{"ha":973,"x_min":109,"x_max":865,"o":"m 109 359 l 109 926 l 225 926 l 225 363 q 293 160 225 233 q 486 86 360 86 q 681 160 612 86 q 749 363 749 234 l 749 926 l 865 926 l 865 361 q 768 83 865 184 q 486 -17 671 -17 q 205 84 302 -17 q 109 359 109 184 m 267 1211 l 375 1211 l 581 1011 l 501 1011 l 267 1211 z "},"Ú":{"ha":973,"x_min":109,"x_max":865,"o":"m 109 359 l 109 926 l 225 926 l 225 363 q 293 160 225 233 q 486 86 360 86 q 681 160 612 86 q 749 363 749 234 l 749 926 l 865 926 l 865 361 q 768 83 865 184 q 486 -17 671 -17 q 205 84 302 -17 q 109 359 109 184 m 395 1011 l 600 1211 l 708 1211 l 473 1011 l 395 1011 z "},"Û":{"ha":973,"x_min":109,"x_max":865,"o":"m 109 359 l 109 926 l 225 926 l 225 363 q 293 160 225 233 q 486 86 360 86 q 681 160 612 86 q 749 363 749 234 l 749 926 l 865 926 l 865 361 q 768 83 865 184 q 486 -17 671 -17 q 205 84 302 -17 q 109 359 109 184 m 310 1011 l 441 1211 l 542 1211 l 677 1011 l 607 1011 l 492 1158 l 380 1011 l 310 1011 z "},"Ü":{"ha":973,"x_min":109,"x_max":865,"o":"m 109 359 l 109 926 l 225 926 l 225 363 q 293 160 225 233 q 486 86 360 86 q 681 160 612 86 q 749 363 749 234 l 749 926 l 865 926 l 865 361 q 768 83 865 184 q 486 -17 671 -17 q 205 84 302 -17 q 109 359 109 184 m 298 1029 q 289 1038 298 1029 q 279 1074 279 1048 q 298 1119 279 1101 q 345 1137 317 1137 q 390 1119 371 1137 q 408 1074 408 1100 q 389 1029 408 1048 q 345 1010 370 1010 q 298 1029 317 1010 m 567 1074 q 586 1119 567 1100 q 631 1137 604 1137 q 677 1119 658 1137 q 696 1074 696 1101 q 677 1029 696 1048 q 631 1010 658 1010 q 586 1029 605 1010 q 567 1074 567 1048 z "},"Ý":{"ha":869,"x_min":12,"x_max":857,"o":"m 12 926 l 147 926 l 435 496 l 722 926 l 857 926 l 493 392 l 493 0 l 378 0 l 378 392 l 12 926 m 349 1011 l 554 1211 l 663 1211 l 428 1011 l 349 1011 z "},"Þ":{"ha":815,"x_min":109,"x_max":771,"o":"m 109 0 l 109 926 l 224 926 l 224 761 l 481 761 q 693 680 615 761 q 771 481 771 600 q 693 283 771 363 q 481 203 614 203 l 224 203 l 224 0 l 109 0 m 224 306 l 467 306 q 601 354 549 306 q 652 481 652 403 q 600 609 652 559 q 467 659 549 659 l 224 659 l 224 306 z "},"ß":{"ha":829,"x_min":106,"x_max":803,"o":"m 106 0 l 106 693 q 178 869 106 798 q 370 940 250 940 q 541 892 469 940 q 612 765 612 844 q 601 709 612 734 q 571 665 589 683 q 531 632 553 648 q 486 602 509 616 q 446 573 464 587 q 416 538 427 558 q 404 496 404 519 q 426 447 404 467 q 484 417 448 428 q 561 396 519 406 q 646 372 604 387 q 724 337 688 358 q 781 278 759 317 q 803 187 803 240 q 736 42 803 100 q 545 -17 669 -17 q 396 11 454 -17 q 286 92 338 39 l 339 164 q 424 96 370 123 q 545 69 478 69 q 661 103 621 69 q 701 184 701 136 q 679 239 701 217 q 622 274 657 262 q 544 297 587 287 q 459 322 502 308 q 382 355 417 336 q 325 410 347 374 q 302 496 302 446 q 323 571 302 537 q 374 626 345 604 q 434 667 404 648 q 484 708 463 686 q 505 754 505 730 q 464 822 505 797 q 368 847 422 847 q 255 805 300 847 q 210 693 210 763 l 210 0 l 106 0 z "},"à":{"ha":798,"x_min":65,"x_max":694,"o":"m 65 335 q 149 591 65 494 q 364 688 232 688 q 490 656 431 688 q 590 570 549 625 l 590 671 l 694 671 l 694 0 l 590 0 l 590 100 q 492 15 551 47 q 364 -17 433 -17 q 148 78 231 -17 q 65 335 65 174 m 232 522 q 203 485 232 522 q 174 335 174 449 q 232 149 174 221 q 390 77 290 77 q 506 107 450 77 q 590 183 562 138 l 590 486 q 506 563 562 532 q 390 595 450 595 q 232 522 290 595 m 187 972 l 296 972 l 501 772 l 422 772 l 187 972 z "},"á":{"ha":798,"x_min":65,"x_max":694,"o":"m 65 335 q 149 591 65 494 q 364 688 232 688 q 490 656 431 688 q 590 570 549 625 l 590 671 l 694 671 l 694 0 l 590 0 l 590 100 q 492 15 551 47 q 364 -17 433 -17 q 148 78 231 -17 q 65 335 65 174 m 232 522 q 203 485 232 522 q 174 335 174 449 q 232 149 174 221 q 390 77 290 77 q 506 107 450 77 q 590 183 562 138 l 590 486 q 506 563 562 532 q 390 595 450 595 q 232 522 290 595 m 317 772 l 522 972 l 631 972 l 396 772 l 317 772 z "},"â":{"ha":798,"x_min":65,"x_max":694,"o":"m 65 335 q 149 591 65 494 q 364 688 232 688 q 490 656 431 688 q 590 570 549 625 l 590 671 l 694 671 l 694 0 l 590 0 l 590 100 q 492 15 551 47 q 364 -17 433 -17 q 148 78 231 -17 q 65 335 65 174 m 232 522 q 203 485 232 522 q 174 335 174 449 q 232 149 174 221 q 390 77 290 77 q 506 107 450 77 q 590 183 562 138 l 590 486 q 506 563 562 532 q 390 595 450 595 q 232 522 290 595 m 224 772 l 355 972 l 456 972 l 591 772 l 521 772 l 406 920 l 294 772 l 224 772 z "},"ã":{"ha":798,"x_min":65,"x_max":694,"o":"m 65 335 q 149 591 65 494 q 364 688 232 688 q 490 656 431 688 q 590 570 549 625 l 590 671 l 694 671 l 694 0 l 590 0 l 590 100 q 492 15 551 47 q 364 -17 433 -17 q 148 78 231 -17 q 65 335 65 174 m 232 522 q 203 485 232 522 q 174 335 174 449 q 232 149 174 221 q 390 77 290 77 q 506 107 450 77 q 590 183 562 138 l 590 486 q 506 563 562 532 q 390 595 450 595 q 232 522 290 595 m 191 778 q 226 912 191 861 q 325 964 261 964 q 374 950 353 964 q 410 919 396 937 q 435 881 423 900 q 463 849 448 863 q 496 836 477 836 q 544 866 526 836 q 562 956 562 896 l 625 956 q 590 821 625 872 q 490 770 554 770 q 441 783 463 770 q 406 815 419 796 q 380 852 392 833 q 353 884 368 871 q 319 897 338 897 q 271 867 290 897 q 253 778 253 838 l 191 778 z "},"ä":{"ha":798,"x_min":65,"x_max":694,"o":"m 65 335 q 149 591 65 494 q 364 688 232 688 q 490 656 431 688 q 590 570 549 625 l 590 671 l 694 671 l 694 0 l 590 0 l 590 100 q 492 15 551 47 q 364 -17 433 -17 q 148 78 231 -17 q 65 335 65 174 m 232 522 q 203 485 232 522 q 174 335 174 449 q 232 149 174 221 q 390 77 290 77 q 506 107 450 77 q 590 183 562 138 l 590 486 q 506 563 562 532 q 390 595 450 595 q 232 522 290 595 m 199 839 q 218 884 199 866 q 264 903 237 903 q 309 884 290 903 q 328 839 328 865 q 309 794 328 813 q 264 775 290 775 q 218 794 237 775 q 199 839 199 813 m 486 839 q 505 884 486 865 q 550 903 524 903 q 596 884 577 903 q 615 839 615 866 q 596 794 615 813 q 550 775 577 775 q 505 794 524 775 q 486 839 486 813 z "},"å":{"ha":798,"x_min":65,"x_max":694,"o":"m 65 335 q 149 591 65 494 q 364 688 232 688 q 490 656 431 688 q 590 570 549 625 l 590 671 l 694 671 l 694 0 l 590 0 l 590 100 q 492 15 551 47 q 364 -17 433 -17 q 148 78 231 -17 q 65 335 65 174 m 232 522 q 203 485 232 522 q 174 335 174 449 q 232 149 174 221 q 390 77 290 77 q 506 107 450 77 q 590 183 562 138 l 590 486 q 506 563 562 532 q 390 595 450 595 q 232 522 290 595 m 307 810 q 287 830 307 810 q 267 907 267 850 q 307 1004 267 963 q 404 1044 348 1044 q 500 1004 460 1044 q 539 907 539 964 q 500 810 539 850 q 404 770 460 770 q 307 810 348 770 m 346 965 q 334 953 346 965 q 322 907 322 941 q 346 849 322 873 q 404 825 370 825 q 461 849 437 825 q 485 907 485 873 q 461 965 485 941 q 404 989 437 989 q 346 965 370 989 z "},"æ":{"ha":1299,"x_min":65,"x_max":1238,"o":"m 65 335 q 149 591 65 494 q 364 688 232 688 q 490 656 431 688 q 590 570 549 625 l 590 671 l 694 671 l 694 541 q 794 649 732 610 q 939 688 857 688 q 1065 660 1008 688 q 1159 583 1122 632 q 1217 469 1197 534 q 1238 328 1238 404 l 1238 301 l 694 301 q 765 137 701 203 q 935 72 829 72 q 1049 94 994 72 q 1143 157 1103 115 l 1193 87 q 950 -17 1093 -17 q 798 21 864 -17 q 694 129 732 59 l 694 0 l 590 0 l 590 100 q 492 15 551 47 q 364 -17 433 -17 q 148 78 231 -17 q 65 335 65 174 m 232 522 q 203 485 232 522 q 174 335 174 449 q 232 149 174 221 q 390 77 290 77 q 506 107 450 77 q 590 183 562 138 l 590 486 q 506 563 562 532 q 390 595 450 595 q 232 522 290 595 m 694 379 l 1135 379 q 1121 456 1134 418 q 1082 527 1107 494 q 1013 581 1056 560 q 914 602 969 602 q 821 581 863 602 q 752 528 779 561 q 711 457 726 495 q 694 379 696 418 z "},"ç":{"ha":688,"x_min":65,"x_max":646,"o":"m 65 336 q 107 515 65 435 q 225 641 149 595 q 400 688 302 688 q 646 571 555 688 l 576 509 q 406 595 513 595 q 237 522 300 595 q 174 336 174 450 q 237 150 174 223 q 406 77 301 77 q 576 164 511 77 l 646 100 q 427 -16 565 -7 l 404 -74 q 456 -58 424 -58 q 522 -84 496 -58 q 547 -151 547 -109 q 506 -232 547 -201 q 403 -262 465 -262 q 322 -251 360 -262 q 262 -221 285 -239 l 289 -168 q 400 -208 338 -208 q 460 -193 436 -208 q 485 -150 485 -177 q 472 -115 485 -127 q 433 -102 458 -102 q 380 -125 399 -102 l 335 -98 l 366 -14 q 148 96 231 -2 q 65 336 65 195 z "},"è":{"ha":782,"x_min":65,"x_max":718,"o":"m 65 336 q 107 513 65 433 q 226 641 150 593 q 396 688 302 688 q 569 640 495 688 q 681 510 643 591 q 718 328 718 429 l 718 301 l 176 301 q 247 136 182 202 q 416 69 312 69 q 530 92 475 69 q 625 155 585 114 l 675 87 q 408 -17 568 -17 q 161 81 258 -17 q 65 336 65 180 m 175 379 l 615 379 q 601 456 614 418 q 562 527 588 494 q 493 581 536 560 q 395 602 450 602 q 301 581 343 602 q 233 528 259 561 q 192 457 207 495 q 175 379 177 418 m 175 972 l 283 972 l 489 772 l 410 772 l 175 972 z "},"é":{"ha":782,"x_min":65,"x_max":718,"o":"m 65 336 q 107 513 65 433 q 226 641 150 593 q 396 688 302 688 q 569 640 495 688 q 681 510 643 591 q 718 328 718 429 l 718 301 l 176 301 q 247 136 182 202 q 416 69 312 69 q 530 92 475 69 q 625 155 585 114 l 675 87 q 408 -17 568 -17 q 161 81 258 -17 q 65 336 65 180 m 175 379 l 615 379 q 601 456 614 418 q 562 527 588 494 q 493 581 536 560 q 395 602 450 602 q 301 581 343 602 q 233 528 259 561 q 192 457 207 495 q 175 379 177 418 m 306 772 l 511 972 l 619 972 l 385 772 l 306 772 z "},"ê":{"ha":782,"x_min":65,"x_max":718,"o":"m 65 336 q 107 513 65 433 q 226 641 150 593 q 396 688 302 688 q 569 640 495 688 q 681 510 643 591 q 718 328 718 429 l 718 301 l 176 301 q 247 136 182 202 q 416 69 312 69 q 530 92 475 69 q 625 155 585 114 l 675 87 q 408 -17 568 -17 q 161 81 258 -17 q 65 336 65 180 m 175 379 l 615 379 q 601 456 614 418 q 562 527 588 494 q 493 581 536 560 q 395 602 450 602 q 301 581 343 602 q 233 528 259 561 q 192 457 207 495 q 175 379 177 418 m 214 772 l 346 972 l 446 972 l 582 772 l 511 772 l 396 920 l 285 772 l 214 772 z "},"ë":{"ha":782,"x_min":65,"x_max":718,"o":"m 65 336 q 107 513 65 433 q 226 641 150 593 q 396 688 302 688 q 569 640 495 688 q 681 510 643 591 q 718 328 718 429 l 718 301 l 176 301 q 247 136 182 202 q 416 69 312 69 q 530 92 475 69 q 625 155 585 114 l 675 87 q 408 -17 568 -17 q 161 81 258 -17 q 65 336 65 180 m 175 379 l 615 379 q 601 456 614 418 q 562 527 588 494 q 493 581 536 560 q 395 602 450 602 q 301 581 343 602 q 233 528 259 561 q 192 457 207 495 q 175 379 177 418 m 189 839 q 208 884 189 866 q 254 903 227 903 q 299 884 281 903 q 318 839 318 865 q 299 794 318 813 q 254 775 280 775 q 208 794 227 775 q 189 839 189 813 m 476 839 q 495 884 476 865 q 541 903 514 903 q 587 884 568 903 q 606 839 606 866 q 587 794 606 813 q 541 775 568 775 q 495 794 515 775 q 476 839 476 813 z "},"ì":{"ha":312,"x_min":-66,"x_max":248,"o":"m -66 972 l 41 972 l 248 772 l 168 772 l -66 972 m 104 0 l 104 671 l 208 671 l 208 0 l 104 0 z "},"í":{"ha":312,"x_min":65,"x_max":379,"o":"m 65 772 l 271 972 l 379 972 l 144 772 l 65 772 m 104 0 l 104 671 l 208 671 l 208 0 l 104 0 z "},"î":{"ha":312,"x_min":-26,"x_max":342,"o":"m -26 772 l 106 972 l 205 972 l 342 772 l 271 772 l 155 920 l 45 772 l -26 772 m 104 0 l 104 671 l 208 671 l 208 0 l 104 0 z "},"ï":{"ha":312,"x_min":-52,"x_max":366,"o":"m -52 839 q -33 884 -52 866 q 14 903 -14 903 q 59 884 40 903 q 78 839 78 865 q 59 794 78 813 q 14 775 39 775 q -33 794 -14 775 q -52 839 -52 813 m 104 0 l 104 671 l 208 671 l 208 0 l 104 0 m 236 839 q 255 884 236 865 q 300 903 273 903 q 346 884 327 903 q 366 839 366 865 q 346 794 366 813 q 300 775 327 775 q 255 794 274 775 q 236 839 236 813 z "},"ð":{"ha":794,"x_min":65,"x_max":729,"o":"m 65 325 q 151 568 65 471 q 371 665 237 665 q 590 543 507 665 q 368 779 519 669 l 170 690 l 144 749 l 309 821 q 251 858 289 833 q 204 888 213 882 l 261 974 q 416 868 346 922 l 567 935 l 590 878 l 471 825 q 729 343 729 606 q 638 84 729 185 q 397 -17 548 -17 q 157 80 250 -17 q 65 325 65 177 m 175 325 q 235 149 175 220 q 397 77 294 77 q 560 149 500 77 q 619 325 619 220 q 594 447 619 391 q 518 537 569 503 q 397 572 467 572 q 235 500 294 572 q 175 325 175 428 z "},"ñ":{"ha":766,"x_min":109,"x_max":665,"o":"m 109 0 l 109 671 l 212 671 l 212 574 q 317 654 252 621 q 453 688 382 688 q 665 471 665 688 l 665 0 l 562 0 l 562 439 q 523 559 562 524 q 411 595 484 595 q 299 564 353 595 q 212 490 245 534 l 212 0 l 109 0 m 167 778 q 202 912 167 861 q 301 964 237 964 q 351 950 329 964 q 386 919 372 937 q 412 881 399 900 q 439 849 424 863 q 472 836 454 836 q 520 866 502 836 q 539 956 539 896 l 602 956 q 566 821 602 872 q 467 770 530 770 q 417 783 439 770 q 382 815 395 796 q 356 852 368 833 q 329 884 344 871 q 296 897 314 897 q 248 867 266 897 q 229 778 229 838 l 167 778 z "},"ò":{"ha":794,"x_min":65,"x_max":729,"o":"m 105 159 q 85 199 105 159 q 65 336 65 239 q 105 513 65 434 q 221 640 145 593 q 397 688 298 688 q 573 640 497 688 q 689 513 650 593 q 729 336 729 434 q 689 159 729 239 q 573 31 650 79 q 397 -17 497 -17 q 221 31 298 -17 q 105 159 145 79 m 175 336 q 235 152 175 228 q 397 77 294 77 q 518 113 467 77 q 594 208 569 150 q 619 336 619 266 q 594 464 619 406 q 518 558 569 522 q 397 595 467 595 q 277 558 328 595 q 200 464 225 522 q 175 336 175 406 m 175 972 l 283 972 l 489 772 l 410 772 l 175 972 z "},"ó":{"ha":794,"x_min":65,"x_max":729,"o":"m 105 159 q 85 199 105 159 q 65 336 65 239 q 105 513 65 434 q 221 640 145 593 q 397 688 298 688 q 573 640 497 688 q 689 513 650 593 q 729 336 729 434 q 689 159 729 239 q 573 31 650 79 q 397 -17 497 -17 q 221 31 298 -17 q 105 159 145 79 m 175 336 q 235 152 175 228 q 397 77 294 77 q 518 113 467 77 q 594 208 569 150 q 619 336 619 266 q 594 464 619 406 q 518 558 569 522 q 397 595 467 595 q 277 558 328 595 q 200 464 225 522 q 175 336 175 406 m 306 772 l 511 972 l 619 972 l 385 772 l 306 772 z "},"ô":{"ha":794,"x_min":65,"x_max":729,"o":"m 105 159 q 85 199 105 159 q 65 336 65 239 q 105 513 65 434 q 221 640 145 593 q 397 688 298 688 q 573 640 497 688 q 689 513 650 593 q 729 336 729 434 q 689 159 729 239 q 573 31 650 79 q 397 -17 497 -17 q 221 31 298 -17 q 105 159 145 79 m 175 336 q 235 152 175 228 q 397 77 294 77 q 518 113 467 77 q 594 208 569 150 q 619 336 619 266 q 594 464 619 406 q 518 558 569 522 q 397 595 467 595 q 277 558 328 595 q 200 464 225 522 q 175 336 175 406 m 215 772 l 347 972 l 447 972 l 583 772 l 513 772 l 397 920 l 286 772 l 215 772 z "},"õ":{"ha":794,"x_min":65,"x_max":729,"o":"m 105 159 q 85 199 105 159 q 65 336 65 239 q 105 513 65 434 q 221 640 145 593 q 397 688 298 688 q 573 640 497 688 q 689 513 650 593 q 729 336 729 434 q 689 159 729 239 q 573 31 650 79 q 397 -17 497 -17 q 221 31 298 -17 q 105 159 145 79 m 175 336 q 235 152 175 228 q 397 77 294 77 q 518 113 467 77 q 594 208 569 150 q 619 336 619 266 q 594 464 619 406 q 518 558 569 522 q 397 595 467 595 q 277 558 328 595 q 200 464 225 522 q 175 336 175 406 m 180 778 q 216 912 180 861 q 315 964 252 964 q 365 950 343 964 q 400 919 387 937 q 426 881 414 900 q 453 849 438 863 q 486 836 468 836 q 534 866 516 836 q 553 956 553 896 l 615 956 q 580 821 615 872 q 481 770 545 770 q 431 783 453 770 q 396 815 410 796 q 370 852 382 833 q 343 884 358 871 q 310 897 328 897 q 261 867 280 897 q 243 778 243 838 l 180 778 z "},"ö":{"ha":794,"x_min":65,"x_max":729,"o":"m 105 159 q 85 199 105 159 q 65 336 65 239 q 105 513 65 434 q 221 640 145 593 q 397 688 298 688 q 573 640 497 688 q 689 513 650 593 q 729 336 729 434 q 689 159 729 239 q 573 31 650 79 q 397 -17 497 -17 q 221 31 298 -17 q 105 159 145 79 m 175 336 q 235 152 175 228 q 397 77 294 77 q 518 113 467 77 q 594 208 569 150 q 619 336 619 266 q 594 464 619 406 q 518 558 569 522 q 397 595 467 595 q 277 558 328 595 q 200 464 225 522 q 175 336 175 406 m 189 839 q 208 884 189 866 q 254 903 227 903 q 299 884 281 903 q 318 839 318 865 q 299 794 318 813 q 254 775 280 775 q 208 794 227 775 q 189 839 189 813 m 476 839 q 495 884 476 865 q 541 903 514 903 q 587 884 568 903 q 606 839 606 866 q 587 794 606 813 q 541 775 568 775 q 495 794 515 775 q 476 839 476 813 z "},"÷":{"ha":709,"x_min":40,"x_max":669,"o":"m 40 432 l 40 504 l 669 504 l 669 432 l 40 432 m 311 155 q 301 165 311 155 q 292 200 292 174 q 311 245 292 226 q 355 264 330 264 q 400 245 381 264 q 419 200 419 226 q 400 155 419 174 q 355 136 381 136 q 311 155 330 136 m 292 732 q 311 776 292 758 q 355 794 330 794 q 400 776 381 794 q 419 732 419 758 q 400 686 419 705 q 355 667 381 667 q 311 686 330 667 q 292 732 292 705 z "},"ø":{"ha":794,"x_min":65,"x_max":729,"o":"m 65 336 q 105 513 65 434 q 221 640 145 593 q 397 688 298 688 q 587 631 506 688 l 619 671 l 696 671 l 633 591 q 704 477 680 543 q 729 336 729 411 q 689 159 729 239 q 573 31 650 79 q 397 -17 497 -17 q 200 46 283 -17 l 164 0 l 89 0 l 155 85 q 65 336 65 183 m 175 336 q 222 168 175 237 l 525 553 q 397 595 472 595 q 277 558 328 595 q 200 464 225 522 q 175 336 175 406 m 261 123 q 397 77 316 77 q 518 113 467 77 q 594 208 569 150 q 619 336 619 266 q 567 509 619 439 l 261 123 z "},"ù":{"ha":765,"x_min":104,"x_max":661,"o":"m 104 197 l 104 671 l 208 671 l 208 229 q 247 111 208 145 q 359 77 286 77 q 472 106 418 77 q 557 178 526 135 l 557 671 l 661 671 l 661 0 l 557 0 l 557 94 q 452 15 515 47 q 318 -17 389 -17 q 104 197 104 -17 m 164 972 l 272 972 l 478 772 l 399 772 l 164 972 z "},"ú":{"ha":765,"x_min":104,"x_max":661,"o":"m 104 197 l 104 671 l 208 671 l 208 229 q 247 111 208 145 q 359 77 286 77 q 472 106 418 77 q 557 178 526 135 l 557 671 l 661 671 l 661 0 l 557 0 l 557 94 q 452 15 515 47 q 318 -17 389 -17 q 104 197 104 -17 m 293 772 l 498 972 l 607 972 l 372 772 l 293 772 z "},"û":{"ha":765,"x_min":104,"x_max":661,"o":"m 104 197 l 104 671 l 208 671 l 208 229 q 247 111 208 145 q 359 77 286 77 q 472 106 418 77 q 557 178 526 135 l 557 671 l 661 671 l 661 0 l 557 0 l 557 94 q 452 15 515 47 q 318 -17 389 -17 q 104 197 104 -17 m 200 772 l 332 972 l 432 972 l 568 772 l 497 772 l 382 920 l 271 772 l 200 772 z "},"ü":{"ha":765,"x_min":104,"x_max":661,"o":"m 104 197 l 104 671 l 208 671 l 208 229 q 247 111 208 145 q 359 77 286 77 q 472 106 418 77 q 557 178 526 135 l 557 671 l 661 671 l 661 0 l 557 0 l 557 94 q 452 15 515 47 q 318 -17 389 -17 q 104 197 104 -17 m 179 839 q 198 884 179 866 q 244 903 217 903 q 290 884 271 903 q 309 839 309 865 q 289 794 309 813 q 244 775 270 775 q 198 794 217 775 q 179 839 179 813 m 467 839 q 485 884 467 865 q 530 903 504 903 q 577 884 557 903 q 596 839 596 865 q 577 794 596 813 q 530 775 557 775 q 486 794 505 775 q 467 839 467 813 z "},"ý":{"ha":765,"x_min":97,"x_max":661,"o":"m 97 -171 l 150 -96 q 354 -186 222 -186 q 503 -135 449 -186 q 557 8 557 -83 l 557 109 q 452 29 515 61 q 318 -3 389 -3 q 104 211 104 -3 l 104 671 l 208 671 l 208 243 q 247 124 208 159 q 359 89 286 89 q 471 119 417 89 q 557 191 526 149 l 557 671 l 661 671 l 661 8 q 637 -116 661 -61 q 570 -204 612 -170 q 472 -255 527 -237 q 354 -272 417 -272 q 210 -247 272 -272 q 97 -171 149 -222 m 290 772 l 496 972 l 604 972 l 370 772 l 290 772 z "},"þ":{"ha":794,"x_min":104,"x_max":733,"o":"m 104 -256 l 104 926 l 208 926 l 208 571 q 306 656 246 624 q 435 688 366 688 q 651 593 568 688 q 733 336 733 498 q 651 79 733 176 q 435 -17 568 -17 q 309 14 367 -17 q 208 102 251 45 l 208 -256 l 104 -256 m 208 184 q 292 108 236 139 q 408 77 349 77 q 566 150 507 77 q 624 336 624 222 q 566 523 624 450 q 408 595 507 595 q 292 564 349 595 q 208 488 236 532 l 208 184 z "},"ÿ":{"ha":765,"x_min":97,"x_max":661,"o":"m 97 -171 l 150 -96 q 354 -186 222 -186 q 503 -135 449 -186 q 557 8 557 -83 l 557 109 q 452 29 515 61 q 318 -3 389 -3 q 104 211 104 -3 l 104 671 l 208 671 l 208 243 q 247 124 208 159 q 359 89 286 89 q 471 119 417 89 q 557 191 526 149 l 557 671 l 661 671 l 661 8 q 637 -116 661 -61 q 570 -204 612 -170 q 472 -255 527 -237 q 354 -272 417 -272 q 210 -247 272 -272 q 97 -171 149 -222 m 170 839 q 189 884 170 866 q 235 903 208 903 q 280 884 261 903 q 298 839 298 865 q 279 794 298 813 q 235 775 260 775 q 189 794 208 775 q 170 839 170 813 m 457 839 q 476 884 457 865 q 521 903 494 903 q 567 884 548 903 q 586 839 586 866 q 567 794 586 813 q 521 775 548 775 q 476 794 495 775 q 457 839 457 813 z "},"Œ":{"ha":1535,"x_min":71,"x_max":1459,"o":"m 126 218 q 99 272 126 218 q 71 463 71 327 q 126 707 71 598 q 286 878 182 816 q 521 940 389 940 q 712 893 623 940 q 852 758 802 846 l 852 926 l 1459 926 l 1459 823 l 968 823 l 968 525 l 1450 525 l 1450 422 l 968 422 l 968 103 l 1459 103 l 1459 0 l 852 0 l 852 168 q 712 31 802 79 q 521 -17 623 -17 q 286 46 389 -17 q 126 218 182 109 m 191 463 q 215 313 191 382 q 282 194 239 244 q 391 115 326 143 q 534 86 456 86 q 727 144 643 86 q 852 311 812 202 l 852 615 q 728 781 812 724 q 534 838 644 838 q 284 732 378 838 q 191 463 191 627 z "},"œ":{"ha":1336,"x_min":65,"x_max":1272,"o":"m 105 159 q 85 199 105 159 q 65 336 65 239 q 105 513 65 434 q 221 640 145 593 q 397 688 298 688 q 506 668 456 688 q 588 617 555 649 q 641 556 621 585 q 675 496 661 527 q 709 557 688 527 q 763 619 730 588 q 845 669 796 650 q 950 688 893 688 q 1123 640 1049 688 q 1235 510 1197 591 q 1272 328 1272 429 l 1272 301 l 730 301 q 802 136 736 203 q 971 69 867 69 q 1084 92 1030 69 q 1179 155 1139 114 l 1229 87 q 962 -17 1122 -17 q 850 1 901 -17 q 765 51 800 20 q 710 111 731 81 q 673 175 688 141 q 648 126 662 149 q 610 76 634 103 q 557 29 585 48 q 487 -4 529 9 q 397 -17 445 -17 q 221 31 298 -17 q 105 159 145 79 m 175 336 q 235 151 175 226 q 397 75 296 75 q 559 151 499 75 q 619 336 619 226 q 559 520 619 446 q 397 595 499 595 q 235 520 296 595 q 175 336 175 446 m 729 379 l 1171 379 q 1161 440 1170 410 q 1135 500 1153 471 q 1093 551 1118 529 q 1030 588 1067 574 q 950 602 994 602 q 856 581 899 602 q 787 528 813 561 q 746 457 761 495 q 729 379 731 418 z "},"Ÿ":{"ha":869,"x_min":12,"x_max":857,"o":"m 12 926 l 147 926 l 435 496 l 722 926 l 857 926 l 493 392 l 493 0 l 378 0 l 378 392 l 12 926 m 231 1074 q 250 1119 231 1101 q 296 1137 269 1137 q 341 1119 322 1137 q 359 1074 359 1100 q 340 1029 359 1048 q 296 1010 321 1010 q 250 1029 269 1010 q 231 1074 231 1048 m 518 1074 q 537 1119 518 1100 q 582 1137 555 1137 q 628 1119 609 1137 q 647 1074 647 1101 q 628 1029 647 1048 q 582 1010 609 1010 q 537 1029 556 1010 q 518 1074 518 1048 z "},"ˆ":{"ha":368,"x_min":0,"x_max":368,"o":"m 0 772 l 132 972 l 232 972 l 368 772 l 297 772 l 182 920 l 71 772 l 0 772 z "},"˜":{"ha":435,"x_min":0,"x_max":435,"o":"m 0 778 q 36 912 0 861 q 135 964 71 964 q 184 950 163 964 q 220 919 206 937 q 245 881 233 900 q 273 849 258 863 q 306 836 288 836 q 354 866 336 836 q 372 956 372 896 l 435 956 q 399 821 435 872 q 300 770 363 770 q 250 783 272 770 q 215 815 229 796 q 189 852 201 833 q 162 884 177 871 q 129 897 147 897 q 81 867 99 897 q 62 778 62 838 l 0 778 z "}," ":{"ha":618,"x_min":0,"x_max":0,"o":""}," ":{"ha":1236,"x_min":0,"x_max":0,"o":""}," ":{"ha":618,"x_min":0,"x_max":0,"o":""}," ":{"ha":1236,"x_min":0,"x_max":0,"o":""}," ":{"ha":412,"x_min":0,"x_max":0,"o":""}," ":{"ha":309,"x_min":0,"x_max":0,"o":""}," ":{"ha":205,"x_min":0,"x_max":0,"o":""}," ":{"ha":205,"x_min":0,"x_max":0,"o":""}," ":{"ha":154,"x_min":0,"x_max":0,"o":""}," ":{"ha":247,"x_min":0,"x_max":0,"o":""}," ":{"ha":68,"x_min":0,"x_max":0,"o":""},"‐":{"ha":416,"x_min":41,"x_max":375,"o":"m 41 290 l 41 382 l 375 382 l 375 290 l 41 290 z "},"‑":{"ha":416,"x_min":41,"x_max":375,"o":"m 41 290 l 41 382 l 375 382 l 375 290 l 41 290 z "},"‒":{"ha":416,"x_min":41,"x_max":375,"o":"m 41 290 l 41 382 l 375 382 l 375 290 l 41 290 z "},"–":{"ha":823,"x_min":41,"x_max":782,"o":"m 41 290 l 41 382 l 782 382 l 782 290 l 41 290 z "},"—":{"ha":1156,"x_min":41,"x_max":1116,"o":"m 41 290 l 41 382 l 1116 382 l 1116 290 l 41 290 z "},"‘":{"ha":319,"x_min":66,"x_max":231,"o":"m 66 732 q 98 849 66 793 q 178 940 129 905 l 231 899 q 171 840 197 876 q 140 770 144 803 q 149 771 141 770 q 160 772 156 772 q 207 752 188 772 q 227 701 227 731 q 205 648 227 670 q 153 627 184 627 q 91 655 116 627 q 66 732 66 683 z "},"’":{"ha":319,"x_min":79,"x_max":244,"o":"m 79 668 q 139 727 113 690 q 170 798 165 764 q 150 794 163 794 q 103 815 122 794 q 83 865 83 836 q 105 918 83 896 q 157 940 126 940 q 219 912 194 940 q 244 835 244 884 q 213 717 244 773 q 132 625 182 661 l 79 668 z "},"‚":{"ha":319,"x_min":79,"x_max":244,"o":"m 79 -134 q 140 -75 114 -111 q 170 -4 165 -38 q 150 -7 164 -7 q 103 14 122 -7 q 83 64 83 34 q 105 117 83 94 q 157 139 126 139 q 219 110 194 139 q 244 33 244 81 q 213 -84 244 -28 q 132 -176 182 -140 l 79 -134 z "},"“":{"ha":541,"x_min":75,"x_max":461,"o":"m 75 732 q 106 849 75 793 q 187 940 138 905 l 239 899 q 179 840 205 877 q 150 770 154 803 l 157 771 q 168 772 164 772 q 217 752 197 772 q 236 701 236 731 q 214 648 236 670 q 161 627 193 627 q 100 655 125 627 q 75 732 75 683 m 297 732 q 329 849 297 793 q 410 940 360 905 l 461 899 q 402 840 427 877 q 372 770 376 803 q 380 771 373 770 q 390 772 387 772 q 439 752 419 772 q 458 701 458 731 q 436 648 458 670 q 383 627 414 627 q 322 655 347 627 q 297 732 297 683 z "},"”":{"ha":541,"x_min":79,"x_max":467,"o":"m 79 668 q 139 727 113 690 q 170 798 165 764 q 150 794 163 794 q 103 815 122 794 q 83 865 83 836 q 105 918 83 896 q 157 940 126 940 q 219 912 194 940 q 244 835 244 884 q 213 717 244 773 q 132 625 182 661 l 79 668 m 302 668 q 362 727 336 690 q 392 798 388 764 q 374 794 389 794 q 325 815 345 794 q 306 865 306 836 q 328 918 306 896 q 380 940 350 940 q 442 912 417 940 q 467 835 467 884 q 435 717 467 773 q 354 625 404 661 l 302 668 z "},"„":{"ha":541,"x_min":79,"x_max":467,"o":"m 79 -134 q 140 -75 114 -111 q 170 -4 165 -38 q 150 -7 164 -7 q 103 14 122 -7 q 83 64 83 34 q 105 117 83 94 q 157 139 126 139 q 219 110 194 139 q 244 33 244 81 q 213 -84 244 -28 q 132 -176 182 -140 l 79 -134 m 302 -134 q 362 -75 336 -111 q 392 -4 388 -38 q 374 -7 389 -7 q 325 14 345 -7 q 306 64 306 34 q 328 117 306 94 q 380 139 350 139 q 441 110 416 139 q 467 33 467 81 q 435 -84 467 -28 q 354 -176 404 -140 l 302 -134 z "},"•":{"ha":497,"x_min":100,"x_max":400,"o":"m 100 336 q 144 442 100 398 q 250 486 189 486 q 356 442 312 486 q 400 336 400 398 q 356 231 400 275 q 250 187 312 187 q 144 232 189 187 q 100 336 100 276 z "},"…":{"ha":960,"x_min":83,"x_max":875,"o":"m 83 62 q 106 116 83 94 q 160 139 129 139 q 214 116 191 139 q 236 62 236 94 q 213 9 236 32 q 160 -14 191 -14 q 106 9 129 -14 q 83 62 83 33 m 403 62 q 426 116 403 94 q 479 139 448 139 q 533 116 511 139 q 555 62 555 94 q 533 9 555 32 q 479 -14 510 -14 q 426 9 449 -14 q 403 62 403 33 m 724 62 q 746 116 724 94 q 800 139 769 139 q 853 116 831 139 q 875 62 875 94 q 853 9 875 32 q 800 -14 831 -14 q 746 9 769 -14 q 724 62 724 33 z "}," ":{"ha":247,"x_min":0,"x_max":0,"o":""},"‹":{"ha":410,"x_min":41,"x_max":368,"o":"m 41 338 l 264 583 l 368 583 l 146 338 l 368 87 l 264 87 l 41 338 z "},"›":{"ha":410,"x_min":41,"x_max":368,"o":"m 41 87 l 264 338 l 41 583 l 146 583 l 368 338 l 146 87 l 41 87 z "}," ":{"ha":309,"x_min":0,"x_max":0,"o":""},"€":{"ha":965,"x_min":43,"x_max":930,"o":"m 43 329 l 43 401 l 104 401 q 102 463 102 441 q 104 526 102 484 l 43 526 l 43 600 l 119 600 q 286 849 161 756 q 578 942 412 942 q 929 758 801 942 l 833 704 q 724 802 793 765 q 578 839 656 839 q 370 774 460 839 q 241 600 279 710 l 661 600 l 661 526 l 225 526 q 221 463 221 495 q 225 401 221 431 l 661 401 l 661 329 l 241 329 q 369 152 278 218 q 578 86 460 86 q 724 123 655 86 q 833 221 793 161 l 930 168 q 578 -17 795 -17 q 284 77 410 -17 q 118 329 159 171 l 43 329 z "},"™":{"ha":630,"x_min":24,"x_max":582,"o":"m 24 890 l 24 926 l 235 926 l 235 890 l 149 890 l 149 621 l 110 621 l 110 890 l 24 890 m 285 621 l 285 926 l 345 926 l 433 704 l 522 926 l 582 926 l 582 621 l 543 621 l 543 873 l 439 621 l 428 621 l 323 873 l 323 621 l 285 621 z "},"◼":{"ha":673,"x_min":0,"x_max":673,"o":"m 0 0 l 0 673 l 673 673 l 673 0 l 0 0 z "},"ﬁ":{"ha":707,"x_min":22,"x_max":621,"o":"m 22 579 l 22 671 l 134 671 l 134 722 q 186 882 134 825 q 328 940 239 940 q 431 918 392 940 l 404 839 q 345 854 376 854 q 265 821 292 854 q 237 722 237 787 l 237 671 l 374 671 l 374 579 l 237 579 l 237 0 l 134 0 l 134 579 l 22 579 m 502 787 q 491 797 502 787 q 481 836 481 807 q 502 886 481 865 q 551 907 522 907 q 601 886 581 907 q 621 836 621 865 q 601 787 621 807 q 551 766 581 766 q 502 787 522 766 m 498 0 l 498 671 l 603 671 l 603 0 l 498 0 z "},"ﬂ":{"ha":768,"x_min":22,"x_max":772,"o":"m 22 579 l 22 671 l 134 671 l 134 722 q 186 882 134 825 q 328 940 239 940 q 431 918 392 940 l 404 839 q 345 854 376 854 q 265 821 292 854 q 237 722 237 787 l 237 671 l 374 671 l 374 579 l 237 579 l 237 0 l 134 0 l 134 579 l 22 579 m 498 140 l 498 926 l 603 926 l 603 163 q 620 100 603 123 q 671 77 637 77 q 711 85 692 77 q 741 106 731 94 l 772 26 q 647 -17 724 -17 q 536 24 574 -17 q 498 140 498 65 z "}}}
